<svg width="128" height="21" viewBox="0 0 128 21" fill="none" xmlns="http://www.w3.org/2000/svg">
<path d="M0.107 1.1H3.077V20H0.107V1.1ZM5.30134 1.1H9.02734L11.9163 12.413H11.9703V1.1H14.6163V20H11.5653L8.00134 6.203H7.94734V20H5.30134V1.1ZM16.8238 1.1H24.6808V3.8H19.7938V9.065H23.6278V11.765H19.7938V20H16.8238V1.1ZM26.105 1.1H29.075V20H26.105V1.1ZM31.2994 1.1H35.0254L37.9144 12.413H37.9684V1.1H40.6144V20H37.5634L33.9994 6.203H33.9454V20H31.2994V1.1ZM42.8218 1.1H45.7918V20H42.8218V1.1ZM50.3382 3.8H47.2332V1.1H56.4132V3.8H53.3082V20H50.3382V3.8ZM60.6836 11.954L57.0926 1.1H60.2516L62.2766 8.039H62.3306L64.3556 1.1H67.2446L63.6536 11.954V20H60.6836V11.954ZM109.504 1.1H117.604V3.8H112.474V8.795H116.551V11.495H112.474V17.3H117.604V20H109.504V1.1Z" fill="white"/>
<path d="M68.5826 1.1H72.9566C74.4326 1.1 75.5396 1.496 76.2776 2.288C77.0156 3.08 77.3846 4.241 77.3846 5.771V7.634C77.3846 9.164 77.0156 10.325 76.2776 11.117C75.5396 11.909 74.4326 12.305 72.9566 12.305H71.5526V20H68.5826V1.1ZM72.9566 9.605C73.4426 9.605 73.8026 9.47 74.0366 9.2C74.2886 8.93 74.4146 8.471 74.4146 7.823V5.582C74.4146 4.934 74.2886 4.475 74.0366 4.205C73.8026 3.935 73.4426 3.8 72.9566 3.8H71.5526V9.605H72.9566ZM78.9976 1.1H81.9676V17.3H86.8546V20H78.9976V1.1ZM90.6793 1.1H94.7023L97.7803 20H94.8103L94.2703 16.247V16.301H90.8953L90.3553 20H87.6013L90.6793 1.1ZM93.9193 13.736L92.5963 4.394H92.5423L91.2463 13.736H93.9193ZM103.354 20.27C101.932 20.27 100.843 19.865 100.087 19.055C99.3485 18.245 98.9795 17.102 98.9795 15.626V5.474C98.9795 3.998 99.3485 2.855 100.087 2.045C100.843 1.235 101.932 0.829999 103.354 0.829999C104.776 0.829999 105.856 1.235 106.594 2.045C107.35 2.855 107.728 3.998 107.728 5.474V7.472H104.92V5.285C104.92 4.115 104.425 3.53 103.435 3.53C102.445 3.53 101.95 4.115 101.95 5.285V15.842C101.95 16.994 102.445 17.57 103.435 17.57C104.425 17.57 104.92 16.994 104.92 15.842V12.953H107.728V15.626C107.728 17.102 107.35 18.245 106.594 19.055C105.856 19.865 104.776 20.27 103.354 20.27ZM123.174 20.27C121.734 20.27 120.645 19.865 119.907 19.055C119.169 18.227 118.8 17.048 118.8 15.518V14.438H121.608V15.734C121.608 16.958 122.121 17.57 123.147 17.57C123.651 17.57 124.029 17.426 124.281 17.138C124.551 16.832 124.686 16.346 124.686 15.68C124.686 14.888 124.506 14.195 124.146 13.601C123.786 12.989 123.12 12.26 122.148 11.414C120.924 10.334 120.069 9.362 119.583 8.498C119.097 7.616 118.854 6.626 118.854 5.528C118.854 4.034 119.232 2.882 119.988 2.072C120.744 1.244 121.842 0.829999 123.282 0.829999C124.704 0.829999 125.775 1.244 126.495 2.072C127.233 2.882 127.602 4.052 127.602 5.582V6.365H124.794V5.393C124.794 4.745 124.668 4.277 124.416 3.989C124.164 3.683 123.795 3.53 123.309 3.53C122.319 3.53 121.824 4.133 121.824 5.339C121.824 6.023 122.004 6.662 122.364 7.256C122.742 7.85 123.417 8.57 124.389 9.416C125.631 10.496 126.486 11.477 126.954 12.359C127.422 13.241 127.656 14.276 127.656 15.464C127.656 17.012 127.269 18.2 126.495 19.028C125.739 19.856 124.632 20.27 123.174 20.27Z" fill="#F77A40"/>
</svg>
