<svg width="65" height="64" viewBox="0 0 65 64" fill="none" xmlns="http://www.w3.org/2000/svg">
<path d="M32.4999 5.3335C17.7799 5.3335 5.83325 17.2802 5.83325 32.0002C5.83325 46.7202 17.7799 58.6668 32.4999 58.6668C47.2199 58.6668 59.1666 46.7202 59.1666 32.0002C59.1666 17.2802 47.2199 5.3335 32.4999 5.3335ZM43.2466 33.4135L35.2466 41.4135C34.8466 41.8135 34.3399 42.0002 33.8333 42.0002C33.3266 42.0002 32.8199 41.8135 32.4199 41.4135C31.6466 40.6402 31.6466 39.3602 32.4199 38.5868L37.0066 34.0002H23.1666C22.0733 34.0002 21.1666 33.0935 21.1666 32.0002C21.1666 30.9068 22.0733 30.0002 23.1666 30.0002H37.0066L32.4199 25.4135C31.6466 24.6402 31.6466 23.3602 32.4199 22.5868C33.1933 21.8135 34.4732 21.8135 35.2466 22.5868L43.2466 30.5868C44.0199 31.3602 44.0199 32.6402 43.2466 33.4135Z" fill="white"/>
</svg>
