<svg width="72" height="72" viewBox="0 0 72 72" fill="none" xmlns="http://www.w3.org/2000/svg">
<path d="M36.0003 49.6572C40.7995 49.6572 44.69 45.7667 44.69 40.9675C44.69 36.1683 40.7995 32.2778 36.0003 32.2778C31.2011 32.2778 27.3105 36.1683 27.3105 40.9675C27.3105 45.7667 31.2011 49.6572 36.0003 49.6572Z" fill="white"/>
<path d="M62.0757 19.8643H53.9346C53.4133 19.8644 52.9052 19.7005 52.4823 19.3956C52.0594 19.0908 51.7432 18.6607 51.5785 18.1661L50.7939 15.8099C50.464 14.8212 49.8314 13.9614 48.9856 13.3523C48.1399 12.7432 47.1239 12.4156 46.0816 12.416H25.9288C24.8867 12.4163 23.871 12.7444 23.0257 13.354C22.1804 13.9636 21.5483 14.8237 21.219 15.8124L20.4344 18.1661C20.2697 18.6607 19.9535 19.0908 19.5306 19.3956C19.1077 19.7005 18.5996 19.8644 18.0783 19.8643H9.93724C8.62029 19.8643 7.35728 20.3874 6.42606 21.3187C5.49484 22.2499 4.97168 23.5129 4.97168 24.8298V54.6229C4.97168 55.9398 5.49484 57.2028 6.42606 58.134C7.35728 59.0652 8.62029 59.5884 9.93724 59.5884H62.0757C63.3926 59.5884 64.6556 59.0652 65.5868 58.134C66.5181 57.2028 67.0412 55.9398 67.0412 54.6229V24.8298C67.0412 23.5129 66.5181 22.2499 65.5868 21.3187C64.6556 20.3874 63.3926 19.8643 62.0757 19.8643ZM36.0065 54.6229C28.4787 54.6229 22.3512 48.4954 22.3512 40.9677C22.3512 33.44 28.4787 27.3126 36.0065 27.3126C43.5342 27.3126 49.6618 33.44 49.6618 40.9677C49.6618 48.4954 43.5342 54.6229 36.0065 54.6229ZM50.9031 29.7953C50.2447 29.7953 49.6132 29.5337 49.1476 29.0681C48.6819 28.6025 48.4204 27.971 48.4204 27.3126C48.4204 26.6541 48.6819 26.0226 49.1476 25.557C49.6132 25.0914 50.2447 24.8298 50.9031 24.8298C51.5616 24.8298 52.1931 25.0914 52.6587 25.557C53.1244 26.0226 53.3859 26.6541 53.3859 27.3126C53.3859 27.971 53.1244 28.6025 52.6587 29.0681C52.1931 29.5337 51.5616 29.7953 50.9031 29.7953Z" fill="white"/>
<path d="M13.6601 17.3817H8.69452C8.36528 17.3817 8.04953 17.2509 7.81672 17.0181C7.58391 16.7853 7.45312 16.4695 7.45312 16.1403C7.45312 15.8111 7.58391 15.4953 7.81672 15.2625C8.04953 15.0297 8.36528 14.8989 8.69452 14.8989H13.6601C13.9893 14.8989 14.3051 15.0297 14.5379 15.2625C14.7707 15.4953 14.9015 15.8111 14.9015 16.1403C14.9015 16.4695 14.7707 16.7853 14.5379 17.0181C14.3051 17.2509 13.9893 17.3817 13.6601 17.3817Z" fill="white"/>
</svg>
