<svg width="41" height="41" viewBox="0 0 41 41" fill="none" xmlns="http://www.w3.org/2000/svg">
<path d="M38.017 20.5C39.6645 20.5 41.0222 21.8425 40.7834 23.4725C40.3439 26.4714 39.2428 29.3485 37.5451 31.8892C35.2926 35.2604 32.0909 37.8879 28.345 39.4395C24.5991 40.9911 20.4773 41.3971 16.5006 40.6061C12.524 39.8151 8.87129 37.8627 6.00431 34.9957C3.13733 32.1287 1.1849 28.476 0.393902 24.4994C-0.397095 20.5227 0.00887314 16.4009 1.56047 12.655C3.11207 8.9091 5.7396 5.70744 9.11081 3.45487C11.6515 1.75724 14.5286 0.656141 17.5275 0.21664C19.1575 -0.0222484 20.5 1.33553 20.5 2.98299C20.5 4.63045 19.1507 5.93525 17.5379 6.27103C15.7208 6.6493 13.9838 7.37406 12.4253 8.4154C10.0352 10.0124 8.17236 12.2823 7.07232 14.9381C5.97227 17.5938 5.68445 20.5161 6.24525 23.3354C6.80605 26.1548 8.19028 28.7445 10.2229 30.7771C12.2555 32.8097 14.8452 34.194 17.6646 34.7548C20.4839 35.3156 23.4062 35.0277 26.0619 33.9277C28.7177 32.8276 30.9876 30.9648 32.5846 28.5747C33.6259 27.0162 34.3507 25.2792 34.729 23.4621C35.0647 21.8493 36.3695 20.5 38.017 20.5Z" fill="#42A7C3"/>
</svg>
