<svg width="116" height="116" viewBox="0 0 116 116" fill="none" xmlns="http://www.w3.org/2000/svg">
<path d="M107.56 58C112.221 58 116.063 61.7982 115.387 66.4101C114.144 74.8948 111.028 83.0348 106.225 90.2231C99.8521 99.7611 90.7938 107.195 80.1956 111.585C69.5975 115.975 57.9357 117.123 46.6848 114.886C35.4339 112.648 25.0993 107.124 16.9878 99.0122C8.87636 90.9007 3.3524 80.5661 1.11445 69.3152C-1.12349 58.0643 0.0251045 46.4025 4.41499 35.8044C8.80487 25.2062 16.2389 16.1479 25.7769 9.77476C32.9652 4.97172 41.1052 1.8564 49.5899 0.612934C54.2018 -0.0629466 58 3.77857 58 8.43968C58 13.1008 54.1826 16.7924 49.6193 17.7424C44.4784 18.8127 39.564 20.8632 35.1546 23.8094C28.3923 28.3278 23.1218 34.75 20.0095 42.2638C16.8972 49.7776 16.0828 58.0456 17.6695 66.0222C19.2561 73.9989 23.1725 81.3259 28.9233 87.0767C34.6741 92.8275 42.0011 96.7439 49.9778 98.3305C57.9544 99.9172 66.2224 99.1028 73.7362 95.9905C81.25 92.8782 87.6722 87.6077 92.1906 80.8454C95.1368 76.436 97.1873 71.5216 98.2576 66.3807C99.2076 61.8174 102.899 58 107.56 58Z" fill="#42A7C3"/>
</svg>
