<svg width="86" height="85" viewBox="0 0 86 85" fill="none" xmlns="http://www.w3.org/2000/svg">
<circle cx="43" cy="42.5" r="42.5" fill="#EDEDED"/>
<path d="M17.5 27.8273V33.6963V36.6308V45.4344V48.3689V63.0415V65.976C17.5 69.204 20.037 71.8451 23.1667 71.8451H62.8333C65.9642 71.8451 68.5 69.204 68.5 65.976V63.0415V48.3689V36.6308V27.8273H17.5Z" fill="#F65C15"/>
<path d="M17.5 24.8928V30.7619V33.6964V42.4999V45.4345V60.1071V63.0416C17.5 66.2695 20.037 68.9106 23.1667 68.9106H62.8333C65.9642 68.9106 68.5 66.2695 68.5 63.0416V60.1071V45.4345V33.6964V24.8928H17.5Z" fill="#ECF0F1"/>
<path d="M17.5 21.9583V27.8274V30.7619V39.5654V42.4999V57.1725V60.1071C17.5 63.335 20.037 65.9761 23.1667 65.9761H62.8333C65.9642 65.9761 68.5 63.335 68.5 60.1071V57.1725V42.4999V30.7619V21.9583H17.5Z" fill="#BDC3C7"/>
<path d="M17.5 19.0237V24.8927V27.8272V36.6308V39.5653V54.2379V57.1724C17.5 60.4004 20.037 63.0415 23.1667 63.0415H62.8333C65.9642 63.0415 68.5 60.4004 68.5 57.1724V54.2379V39.5653V27.8272V19.0237H17.5Z" fill="#ECF0F1"/>
<path d="M23.1667 7.28571C20.037 7.28571 17.5 9.92677 17.5 13.1547V16.0893V27.8273V33.6964V36.6309V45.4345V48.369V63.0416V65.9761C17.5 69.2041 20.037 71.8451 23.1667 71.8451H28.8333V68.9106H24.5833C22.2362 68.9106 20.3333 66.8564 20.3333 64.5088C20.3333 61.8678 22.2362 60.107 24.5833 60.107H60H62.8333C65.9642 60.107 68.5 57.466 68.5 54.238V51.3035V36.6309V24.8928V16.0893V13.1547C68.5 9.92677 65.9642 7.28571 62.8333 7.28571H51.5H23.1667Z" fill="#F65C15"/>
<path d="M31.6665 7.28564V60.107H34.4998H59.9998H62.8332C65.964 60.107 68.4998 57.4659 68.4998 54.2379V51.3034V36.6308V24.8928V16.0892V13.1547C68.4998 9.92671 65.964 7.28564 62.8332 7.28564H51.4998H34.4998H31.6665Z" fill="#F77A40"/>
<path d="M28.8335 65.9762V71.8452V77.7143L35.9168 71.8452L43.0002 77.7143V71.8452V65.9762H28.8335Z" fill="#E74C3C"/>
<path d="M43.0002 63.0414H28.8335V65.9759H43.0002V63.0414Z" fill="#C0392B"/>
</svg>
