<svg width="86" height="85" viewBox="0 0 86 85" fill="none" xmlns="http://www.w3.org/2000/svg">
<circle cx="43" cy="42.5" r="42.5" fill="#EDEDED"/>
<path d="M72.0291 53.2853L24.7364 64.2078C22.9621 64.6418 21.1877 63.4121 20.8465 61.5314L14.2269 29.7043C13.8174 27.8236 14.9776 25.9429 16.7519 25.5812L64.0446 14.6587C65.8189 14.2247 67.5932 15.4544 67.9345 17.3351L74.4858 49.2346C74.8953 51.0429 73.8034 52.9236 72.0291 53.2853Z" fill="#F77A40"/>
<path d="M20.7784 61.5314L14.2271 29.7043L20.7784 61.5314Z" fill="#383E56"/>
<path d="M68.7543 20.9019L15.0098 33.3085L16.3458 39.8108L70.0904 27.4043L68.7543 20.9019Z" fill="#5B5D6E"/>
<path opacity="0.15" d="M66.4327 34.3336V66.9564C66.4327 67.7521 66.1597 68.5478 65.682 69.1265C65.1361 69.6328 64.3854 69.9222 63.6347 69.9222H15.1819C13.3394 69.9222 11.9062 68.3308 11.9062 66.4501V33.8273C11.9062 33.0316 12.1792 32.2359 12.6569 31.6572C13.2029 31.1509 13.9536 30.8616 14.7042 30.8616H63.0888C64.9314 30.7892 66.4327 32.3806 66.4327 34.3336Z" fill="black"/>
<path opacity="0.15" d="M66.4329 34.3336V66.9565C66.4329 67.7521 66.1599 68.5478 65.6822 69.1265C65.068 69.9222 64.1809 70.4285 63.1572 70.4285H14.7044C12.8618 70.4285 11.4287 68.8371 11.4287 66.9565V34.3336C11.4287 33.2486 11.9064 32.3083 12.6571 31.6572C13.203 31.1509 13.9537 30.8616 14.7044 30.8616H63.089C64.9315 30.7892 66.4329 32.3806 66.4329 34.3336Z" fill="black"/>
<path d="M63.089 70.4285H14.7044C12.8618 70.4285 11.4287 68.8372 11.4287 66.9565V34.3336C11.4287 32.3806 12.9301 30.8616 14.7044 30.8616H63.089C64.9315 30.8616 66.3646 32.4529 66.3646 34.3336V66.9565C66.3646 68.8372 64.9315 70.4285 63.089 70.4285Z" fill="#F77A40"/>
<path d="M27.193 54.8043H17.5707C16.8882 54.8043 16.3423 54.2256 16.3423 53.5023V47.6432C16.3423 46.9199 16.8882 46.3412 17.5707 46.3412H27.193C27.8754 46.3412 28.4214 46.9199 28.4214 47.6432V53.5746C28.4214 54.2256 27.8754 54.8043 27.193 54.8043Z" fill="#E5CF89"/>
<path d="M59.745 64.2802H48.4166C48.1436 64.2802 47.8706 64.4972 47.8706 64.8588V65.5098C47.8706 65.7992 48.0753 66.0885 48.4166 66.0885H59.745C60.0179 66.0885 60.2909 65.8715 60.2909 65.5098V64.8588C60.2909 64.4972 60.0179 64.2802 59.745 64.2802Z" fill="#5B5D6E"/>
<path d="M45.6868 64.2802H28.5577C28.2847 64.2802 28.0117 64.4972 28.0117 64.8588V65.5098C28.0117 65.7992 28.2164 66.0885 28.5577 66.0885H45.6868C45.9597 66.0885 46.2327 65.8715 46.2327 65.5098V64.8588C46.2327 64.4972 46.028 64.2802 45.6868 64.2802Z" fill="#5B5D6E"/>
</svg>
