<svg width="86" height="98" viewBox="0 0 86 98" fill="none" xmlns="http://www.w3.org/2000/svg">
<circle cx="43" cy="55.5" r="42.5" fill="#EDEDED"/>
<path d="M38.1428 3.87189H34.9048V26.4828H38.1428V3.87189Z" fill="#5B5D6E"/>
<path d="M51.095 3.87189H47.8569V26.4828H51.095V3.87189Z" fill="#5B5D6E"/>
<path d="M26.8098 88.2858H23.5718C22.6776 88.2858 21.9526 87.6107 21.9526 86.7783V79.2413H28.4288V86.7783C28.4289 87.6107 27.7039 88.2858 26.8098 88.2858Z" fill="#464655"/>
<path d="M62.429 88.2858H59.1909C58.2968 88.2858 57.5718 87.6107 57.5718 86.7783V79.2413H64.0479V86.7783C64.0481 87.6107 63.3231 88.2858 62.429 88.2858Z" fill="#464655"/>
<path d="M64.0477 82.2562H21.9524C20.164 82.2562 18.7144 80.9065 18.7144 79.2415V32.5122C18.7144 28.3498 22.3389 24.9753 26.8096 24.9753H59.1905C63.6613 24.9753 67.2858 28.3498 67.2858 32.5122V79.2413C67.2858 80.9065 65.8361 82.2562 64.0477 82.2562Z" fill="#F77A40"/>
<path d="M57.5717 47.5861H28.429C26.6406 47.5861 25.1909 48.9358 25.1909 50.6009V68.6895C25.1909 70.3546 26.6406 71.7043 28.429 71.7043H57.5719C59.3603 71.7043 60.8099 70.3546 60.8099 68.6895V50.6009C60.8097 48.9358 59.3601 47.5861 57.5717 47.5861Z" fill="#F65C15"/>
<path d="M57.5717 41.5566H28.429C26.6406 41.5566 25.1909 40.2069 25.1909 38.5418V34.0196C25.1909 32.3546 26.6406 31.0049 28.429 31.0049H57.5719C59.3603 31.0049 60.8099 32.3546 60.8099 34.0196V38.5418C60.8097 40.2069 59.3601 41.5566 57.5717 41.5566Z" fill="#F65C15"/>
<path d="M51.0952 5.37927H34.9048C34.0107 5.37927 33.2856 4.70426 33.2856 3.87181V2.36452C33.2856 1.53207 34.0107 0.857056 34.9048 0.857056H51.0952C51.9894 0.857056 52.7144 1.53207 52.7144 2.36452V3.87198C52.7144 4.70426 51.9894 5.37927 51.0952 5.37927Z" fill="#707487"/>
<path d="M18.7144 77.734H67.2858V79.2415C67.2858 80.9065 65.8361 82.2562 64.0477 82.2562H21.9524C20.164 82.2562 18.7144 80.9065 18.7144 79.2415V77.734Z" fill="#5B5D6E"/>
</svg>
