<svg width="1374" height="533" viewBox="0 0 1374 533" fill="none" xmlns="http://www.w3.org/2000/svg">
<path opacity="0.5" d="M982.5 514L982.677 514.984L982.5 514ZM1411 276.856C1411 277.408 1411.45 277.856 1412 277.856C1412.55 277.856 1413 277.408 1413 276.856H1411ZM8.21495 -1.95932C8.7133 -1.72126 9.31027 -1.93227 9.54832 -2.43061C9.78638 -2.92896 9.57537 -3.52593 9.07703 -3.76399L8.21495 -1.95932ZM23.363 4.96968C22.9216 4.63781 22.2947 4.72665 21.9628 5.16811C21.6309 5.60957 21.7198 6.23647 22.1612 6.56833L23.363 4.96968ZM34.4482 17.4662C34.8333 17.8621 35.4664 17.8708 35.8623 17.4857C36.2582 17.1006 36.2669 16.4675 35.8818 16.0716L34.4482 17.4662ZM46.7752 28.721C46.4384 28.2833 45.8105 28.2015 45.3728 28.5383C44.9351 28.8751 44.8533 29.503 45.1902 29.9407L46.7752 28.721ZM54.6367 43.4445C54.9343 43.9098 55.5527 44.0457 56.0179 43.7481C56.4832 43.4505 56.6191 42.8321 56.3215 42.3669L54.6367 43.4445ZM64.7962 56.6838C64.5301 56.1999 63.9221 56.0233 63.4381 56.2894C62.9542 56.5555 62.7776 57.1636 63.0437 57.6475L64.7962 56.6838ZM70.6246 72.3556C70.8654 72.8526 71.4635 73.0603 71.9605 72.8195C72.4575 72.5787 72.6653 71.9806 72.4245 71.4836L70.6246 72.3556ZM79.3785 86.6501C79.1582 86.1437 78.5691 85.9116 78.0626 86.1319C77.5562 86.3521 77.3242 86.9413 77.5444 87.4477L79.3785 86.6501ZM83.919 102.816C84.1225 103.329 84.7036 103.581 85.2171 103.377C85.7305 103.174 85.9818 102.593 85.7783 102.079L83.919 102.816ZM91.6584 117.528C91.4685 117.009 90.8942 116.742 90.3756 116.932C89.8569 117.122 89.5904 117.697 89.7803 118.215L91.6584 117.528ZM95.301 133.834C95.4795 134.357 96.048 134.636 96.5706 134.457C97.0932 134.279 97.3721 133.71 97.1935 133.188L95.301 133.834ZM102.44 149.017C102.271 148.491 101.708 148.202 101.182 148.372C100.656 148.541 100.367 149.104 100.536 149.63L102.44 149.017ZM105.492 165.428C105.654 165.956 106.213 166.253 106.741 166.092C107.269 165.93 107.566 165.371 107.404 164.843L105.492 165.428ZM112.162 180.735C112.007 180.205 111.451 179.902 110.921 180.057C110.391 180.212 110.087 180.768 110.243 181.298L112.162 180.735ZM114.843 197.279C114.994 197.81 115.546 198.119 116.078 197.969C116.609 197.819 116.918 197.266 116.768 196.734L114.843 197.279ZM121.222 212.711C121.076 212.178 120.526 211.865 119.993 212.012C119.461 212.158 119.148 212.709 119.294 213.241L121.222 212.711ZM123.648 229.249C123.792 229.782 124.34 230.098 124.874 229.954C125.407 229.811 125.723 229.262 125.579 228.729L123.648 229.249ZM129.869 244.79C129.728 244.257 129.18 243.939 128.646 244.08C128.112 244.222 127.794 244.769 127.936 245.303L129.869 244.79ZM132.169 261.336C132.309 261.87 132.856 262.189 133.39 262.048C133.924 261.908 134.243 261.361 134.103 260.827L132.169 261.336ZM138.322 276.889C138.181 276.354 137.635 276.035 137.101 276.175C136.566 276.316 136.247 276.862 136.387 277.396L138.322 276.889ZM140.607 293.44C140.748 293.974 141.295 294.293 141.829 294.152C142.363 294.012 142.682 293.464 142.541 292.93L140.607 293.44ZM146.797 308.988C146.655 308.455 146.107 308.138 145.573 308.28C145.039 308.422 144.722 308.97 144.865 309.504L146.797 308.988ZM149.175 325.536C149.32 326.069 149.869 326.383 150.402 326.239C150.935 326.094 151.25 325.545 151.105 325.012L149.175 325.536ZM155.493 340.995C155.345 340.463 154.794 340.151 154.262 340.299C153.73 340.447 153.418 340.999 153.566 341.531L155.493 340.995ZM158.087 357.548C158.24 358.079 158.794 358.386 159.324 358.234C159.855 358.081 160.162 357.527 160.01 356.997L158.087 357.548ZM164.657 372.898C164.499 372.369 163.942 372.067 163.413 372.225C162.884 372.383 162.583 372.94 162.74 373.469L164.657 372.898ZM167.579 389.343C167.744 389.87 168.305 390.164 168.832 390C169.359 389.835 169.653 389.274 169.488 388.747L167.579 389.343ZM174.566 404.588C174.393 404.064 173.828 403.779 173.303 403.952C172.779 404.124 172.493 404.69 172.666 405.214L174.566 404.588ZM178.008 420.929C178.191 421.45 178.762 421.724 179.283 421.541C179.804 421.358 180.078 420.788 179.895 420.266L178.008 420.929ZM185.535 435.768C185.34 435.251 184.763 434.991 184.246 435.186C183.729 435.381 183.468 435.958 183.664 436.475L185.535 435.768ZM189.786 452.027C189.996 452.537 190.581 452.781 191.091 452.571C191.602 452.361 191.846 451.777 191.636 451.266L189.786 452.027ZM198.21 466.501C197.982 465.998 197.389 465.775 196.886 466.003C196.383 466.231 196.16 466.824 196.388 467.327L198.21 466.501ZM203.58 482.311C203.831 482.803 204.433 482.999 204.925 482.749C205.417 482.498 205.613 481.896 205.363 481.404L203.58 482.311ZM213.238 495.887C212.96 495.41 212.347 495.248 211.87 495.526C211.393 495.804 211.232 496.417 211.51 496.894L213.238 495.887ZM220.374 510.944C220.687 511.399 221.309 511.515 221.765 511.203C222.22 510.89 222.336 510.268 222.024 509.812L220.374 510.944ZM231.96 522.946C231.605 522.523 230.974 522.468 230.551 522.824C230.129 523.179 230.074 523.81 230.429 524.233L231.96 522.946ZM241.967 536.352C242.375 536.725 243.007 536.697 243.38 536.29C243.753 535.882 243.725 535.25 243.318 534.877L241.967 536.352ZM256.312 544.937C255.846 544.639 255.228 544.776 254.931 545.241C254.633 545.706 254.77 546.325 255.235 546.622L256.312 544.937ZM270.235 554.121C270.753 554.312 271.328 554.046 271.518 553.528C271.709 553.01 271.444 552.435 270.925 552.244L270.235 554.121ZM286.744 556.025C286.196 555.961 285.699 556.354 285.635 556.903C285.571 557.451 285.964 557.948 286.513 558.012L286.744 556.025ZM303.506 558.499C304.059 558.499 304.506 558.051 304.506 557.499C304.506 556.947 304.058 556.499 303.506 556.499L303.506 558.499ZM320.808 556.487C320.256 556.487 319.809 556.936 319.81 557.488C319.811 558.04 320.259 558.487 320.811 558.486L320.808 556.487ZM337.994 558.449C338.546 558.447 338.993 557.998 338.991 557.446C338.989 556.893 338.54 556.447 337.988 556.449L337.994 558.449ZM355.221 556.379C354.668 556.382 354.223 556.832 354.226 557.384C354.228 557.936 354.678 558.382 355.231 558.379L355.221 556.379ZM372.481 558.274C373.033 558.27 373.477 557.819 373.473 557.266C373.469 556.714 373.018 556.27 372.466 556.274L372.481 558.274ZM389.713 556.13C389.16 556.135 388.717 556.587 388.722 557.139C388.728 557.691 389.179 558.135 389.732 558.13L389.713 556.13ZM406.984 557.945C407.537 557.939 407.979 557.486 407.973 556.934C407.966 556.381 407.513 555.939 406.961 555.945L406.984 557.945ZM424.215 555.719C423.662 555.727 423.221 556.181 423.229 556.733C423.237 557.286 423.691 557.727 424.243 557.719L424.215 555.719ZM441.513 557.448C442.065 557.439 442.506 556.984 442.496 556.432C442.487 555.879 442.032 555.439 441.479 555.449L441.513 557.448ZM458.759 555.133C458.207 555.144 457.768 555.6 457.779 556.153C457.789 556.705 458.246 557.144 458.798 557.133L458.759 555.133ZM476.021 556.772C476.573 556.76 477.01 556.302 476.998 555.75C476.986 555.198 476.528 554.76 475.976 554.773L476.021 556.772ZM493.18 554.365C492.628 554.379 492.192 554.837 492.206 555.39C492.219 555.942 492.678 556.378 493.23 556.364L493.18 554.365ZM510.467 555.907C511.019 555.891 511.454 555.431 511.439 554.879C511.423 554.327 510.963 553.892 510.411 553.908L510.467 555.907ZM527.667 553.399C527.115 553.416 526.682 553.878 526.699 554.43C526.716 554.982 527.177 555.415 527.729 555.398L527.667 553.399ZM545.008 554.837C545.56 554.818 545.993 554.355 545.974 553.803C545.955 553.251 545.492 552.819 544.94 552.838L545.008 554.837ZM562.128 552.226C561.576 552.247 561.145 552.711 561.166 553.263C561.186 553.815 561.65 554.245 562.202 554.225L562.128 552.226ZM579.429 553.557C579.981 553.534 580.41 553.069 580.388 552.517C580.366 551.965 579.9 551.536 579.348 551.558L579.429 553.557ZM596.595 550.832C596.043 550.857 595.615 551.323 595.64 551.875C595.664 552.427 596.131 552.855 596.682 552.831L596.595 550.832ZM613.924 552.046C614.475 552.02 614.901 551.551 614.875 551C614.849 550.448 614.381 550.022 613.829 550.048L613.924 552.046ZM631.028 549.205C630.476 549.233 630.052 549.703 630.08 550.254C630.108 550.806 630.578 551.23 631.129 551.202L631.028 549.205ZM648.359 550.294C648.911 550.264 649.333 549.792 649.303 549.241C649.273 548.689 648.802 548.267 648.25 548.297L648.359 550.294ZM665.485 547.323C664.934 547.355 664.513 547.828 664.545 548.38C664.578 548.931 665.051 549.352 665.602 549.32L665.485 547.323ZM682.801 548.28C683.353 548.245 683.772 547.771 683.737 547.219C683.703 546.668 683.228 546.249 682.677 546.284L682.801 548.28ZM699.882 545.173C699.331 545.21 698.914 545.686 698.95 546.237C698.987 546.788 699.464 547.205 700.015 547.169L699.882 545.173ZM717.233 545.984C717.784 545.944 718.199 545.466 718.159 544.915C718.12 544.364 717.642 543.949 717.091 543.989L717.233 545.984ZM734.281 542.729C733.73 542.77 733.318 543.251 733.359 543.801C733.401 544.352 733.881 544.765 734.432 544.723L734.281 542.729ZM751.63 543.383C752.18 543.338 752.591 542.856 752.546 542.306C752.502 541.755 752.02 541.345 751.47 541.389L751.63 543.383ZM768.653 539.966C768.103 540.013 767.695 540.497 767.742 541.047C767.789 541.598 768.273 542.006 768.823 541.959L768.653 539.966ZM786.005 540.448C786.555 540.398 786.961 539.912 786.911 539.362C786.861 538.812 786.375 538.406 785.825 538.456L786.005 540.448ZM802.995 536.854C802.445 536.907 802.043 537.395 802.095 537.945C802.148 538.495 802.637 538.898 803.187 538.845L802.995 536.854ZM820.352 537.146C820.902 537.09 821.302 536.599 821.246 536.05C821.19 535.501 820.699 535.101 820.149 535.157L820.352 537.146ZM837.286 533.359C836.737 533.418 836.34 533.911 836.399 534.46C836.458 535.009 836.951 535.406 837.5 535.347L837.286 533.359ZM854.661 533.439C855.209 533.376 855.603 532.88 855.54 532.331C855.478 531.783 854.982 531.389 854.433 531.452L854.661 533.439ZM871.553 529.433C871.005 529.499 870.614 529.998 870.681 530.546C870.748 531.094 871.246 531.485 871.794 531.418L871.553 529.433ZM888.888 529.281C889.436 529.211 889.823 528.71 889.752 528.162C889.682 527.614 889.18 527.227 888.633 527.298L888.888 529.281ZM905.745 525.029C905.198 525.104 904.815 525.608 904.889 526.155C904.964 526.702 905.468 527.085 906.015 527.011L905.745 525.029ZM923.11 524.606C923.657 524.527 924.036 524.019 923.956 523.473C923.877 522.926 923.37 522.547 922.823 522.626L923.11 524.606ZM939.852 520.083C939.306 520.167 938.932 520.677 939.016 521.223C939.1 521.769 939.611 522.144 940.156 522.06L939.852 520.083ZM957.189 519.356C957.734 519.267 958.104 518.753 958.015 518.208C957.926 517.663 957.411 517.293 956.866 517.382L957.189 519.356ZM973.889 514.508C973.345 514.603 972.981 515.121 973.076 515.665C973.171 516.209 973.689 516.573 974.233 516.479L973.889 514.508ZM991.092 513.25C991.629 513.124 991.964 512.586 991.838 512.049C991.713 511.511 991.175 511.177 990.637 511.302L991.092 513.25ZM1006.66 506.652C1006.14 506.834 1005.86 507.405 1006.04 507.926C1006.23 508.447 1006.8 508.722 1007.32 508.539L1006.66 506.652ZM1022.93 502.038C1023.42 501.797 1023.63 501.198 1023.39 500.702C1023.15 500.205 1022.55 499.998 1022.05 500.24L1022.93 502.038ZM1036.59 492.074C1036.13 492.372 1035.99 492.991 1036.29 493.456C1036.59 493.92 1037.21 494.055 1037.67 493.757L1036.59 492.074ZM1051.35 483.811C1051.78 483.462 1051.84 482.832 1051.49 482.404C1051.14 481.977 1050.51 481.914 1050.08 482.263L1051.35 483.811ZM1062.41 471.002C1062.02 471.395 1062.03 472.028 1062.42 472.416C1062.81 472.803 1063.45 472.798 1063.84 472.405L1062.41 471.002ZM1075.09 459.784C1075.43 459.355 1075.37 458.725 1074.94 458.378C1074.51 458.03 1073.88 458.097 1073.53 458.526L1075.09 459.784ZM1083.49 445.077C1083.18 445.534 1083.29 446.156 1083.75 446.466C1084.21 446.776 1084.83 446.656 1085.14 446.199L1083.49 445.077ZM1094.09 431.871C1094.37 431.392 1094.2 430.781 1093.72 430.505C1093.25 430.229 1092.63 430.394 1092.36 430.872L1094.09 431.871ZM1100.26 416.092C1100.02 416.586 1100.22 417.186 1100.71 417.432C1101.21 417.678 1101.81 417.476 1102.05 416.981L1100.26 416.092ZM1109.16 401.672C1109.38 401.166 1109.14 400.577 1108.64 400.357C1108.13 400.137 1107.54 400.37 1107.32 400.877L1109.16 401.672ZM1113.65 385.335C1113.46 385.851 1113.71 386.43 1114.23 386.627C1114.75 386.825 1115.32 386.567 1115.52 386.051L1113.65 385.335ZM1121.27 370.199C1121.45 369.677 1121.17 369.108 1120.65 368.929C1120.12 368.75 1119.56 369.028 1119.38 369.55L1121.27 370.199ZM1124.59 353.582C1124.43 354.109 1124.72 354.67 1125.25 354.834C1125.78 354.998 1126.34 354.704 1126.5 354.177L1124.59 353.582ZM1131.33 338.031C1131.48 337.5 1131.17 336.946 1130.64 336.794C1130.11 336.641 1129.56 336.948 1129.41 337.479L1131.33 338.031ZM1133.9 321.278C1133.76 321.812 1134.08 322.36 1134.61 322.504C1135.14 322.648 1135.69 322.332 1135.83 321.798L1133.9 321.278ZM1140.12 305.51C1140.25 304.976 1139.93 304.43 1139.4 304.293C1138.86 304.155 1138.32 304.477 1138.18 305.012L1140.12 305.51ZM1142.33 288.706C1142.19 289.241 1142.52 289.785 1143.05 289.92C1143.59 290.055 1144.13 289.73 1144.27 289.195L1142.33 288.706ZM1148.38 272.879C1148.52 272.344 1148.2 271.8 1147.66 271.664C1147.12 271.529 1146.58 271.852 1146.45 272.388L1148.38 272.879ZM1150.64 256.089C1150.5 256.623 1150.82 257.17 1151.35 257.31C1151.89 257.45 1152.44 257.131 1152.58 256.597L1150.64 256.089ZM1156.97 240.392C1157.12 239.86 1156.81 239.308 1156.28 239.158C1155.75 239.009 1155.2 239.318 1155.05 239.85L1156.97 240.392ZM1159.84 223.695C1159.67 224.222 1159.96 224.783 1160.49 224.948C1161.02 225.114 1161.58 224.821 1161.74 224.294L1159.84 223.695ZM1167.13 208.347C1167.32 207.829 1167.06 207.254 1166.54 207.064C1166.02 206.875 1165.44 207.141 1165.25 207.66L1167.13 208.347ZM1171.6 191.982C1171.38 192.485 1171.6 193.077 1172.1 193.305C1172.61 193.532 1173.2 193.308 1173.43 192.805L1171.6 191.982ZM1181.05 178.059C1181.34 177.586 1181.18 176.971 1180.71 176.688C1180.24 176.404 1179.62 176.558 1179.34 177.031L1181.05 178.059ZM1189.37 163.211C1189 163.622 1189.03 164.254 1189.44 164.623C1189.85 164.992 1190.49 164.957 1190.86 164.546L1189.37 163.211ZM1203.42 153.976C1203.89 153.692 1204.05 153.078 1203.76 152.604C1203.48 152.13 1202.86 151.976 1202.39 152.26L1203.42 153.976ZM1218.39 146.33C1217.84 146.423 1217.48 146.94 1217.57 147.484C1217.66 148.028 1218.18 148.394 1218.73 148.301L1218.39 146.33ZM1235.55 148.371C1236.1 148.443 1236.6 148.057 1236.68 147.51C1236.75 146.962 1236.36 146.46 1235.81 146.388L1235.55 148.371ZM1253.14 149.357C1252.6 149.247 1252.07 149.597 1251.96 150.138C1251.85 150.679 1252.2 151.207 1252.74 151.317L1253.14 149.357ZM1269.8 155.241C1270.34 155.378 1270.88 155.055 1271.02 154.52C1271.16 153.985 1270.84 153.44 1270.3 153.303L1269.8 155.241ZM1287.24 158.058C1286.71 157.896 1286.15 158.193 1285.99 158.721C1285.83 159.25 1286.13 159.809 1286.66 159.97L1287.24 158.058ZM1303.24 165.495C1303.76 165.683 1304.33 165.414 1304.52 164.894C1304.71 164.375 1304.44 163.802 1303.92 163.614L1303.24 165.495ZM1320.3 170.035C1319.79 169.82 1319.2 170.057 1318.99 170.565C1318.77 171.073 1319.01 171.66 1319.52 171.876L1320.3 170.035ZM1335.38 179.204C1335.87 179.452 1336.47 179.252 1336.72 178.759C1336.97 178.265 1336.77 177.664 1336.28 177.417L1335.38 179.204ZM1351.71 185.891C1351.24 185.606 1350.62 185.76 1350.34 186.233C1350.05 186.706 1350.21 187.321 1350.68 187.605L1351.71 185.891ZM1365.21 197.245C1365.66 197.572 1366.28 197.476 1366.61 197.031C1366.94 196.586 1366.84 195.96 1366.39 195.633L1365.21 197.245ZM1380.01 206.847C1379.61 206.471 1378.98 206.495 1378.6 206.899C1378.23 207.304 1378.25 207.937 1378.65 208.313L1380.01 206.847ZM1390.55 220.985C1390.89 221.414 1391.52 221.481 1391.95 221.134C1392.38 220.787 1392.45 220.157 1392.1 219.728L1390.55 220.985ZM1402.01 234.377C1401.75 233.894 1401.14 233.719 1400.66 233.986C1400.17 234.254 1400 234.862 1400.26 235.345L1402.01 234.377ZM1407.11 251.239C1407.28 251.766 1407.84 252.058 1408.37 251.892C1408.89 251.726 1409.19 251.165 1409.02 250.638L1407.11 251.239ZM1412.57 267.992C1412.51 267.443 1412.02 267.041 1411.47 267.095C1410.92 267.15 1410.52 267.639 1410.58 268.189L1412.57 267.992ZM0.673928 -5.05465C3.23535 -4.17116 5.74837 -3.13759 8.21495 -1.95932L9.07703 -3.76399C6.54404 -4.97398 3.961 -6.0365 1.32607 -6.94535L0.673928 -5.05465ZM22.1612 6.56833C26.3978 9.75317 30.4897 13.397 34.4482 17.4662L35.8818 16.0716C31.8593 11.9367 27.6906 8.22295 23.363 4.96968L22.1612 6.56833ZM45.1902 29.9407C48.4312 34.1525 51.5775 38.6615 54.6367 43.4445L56.3215 42.3669C53.2346 37.5405 50.0552 32.9835 46.7752 28.721L45.1902 29.9407ZM63.0437 57.6475C65.6331 62.3564 68.1582 67.2647 70.6246 72.3556L72.4245 71.4836C69.9446 66.3648 67.4037 61.4257 64.7962 56.6838L63.0437 57.6475ZM77.5444 87.4477C79.7132 92.4349 81.8366 97.562 83.919 102.816L85.7783 102.079C83.6886 96.8066 81.5568 91.6591 79.3785 86.6501L77.5444 87.4477ZM89.7803 118.215C91.6515 123.326 93.4906 128.536 95.301 133.834L97.1935 133.188C95.3788 127.877 93.535 122.653 91.6584 117.528L89.7803 118.215ZM100.536 149.63C102.21 154.829 103.861 160.098 105.492 165.428L107.404 164.843C105.771 159.505 104.117 154.226 102.44 149.017L100.536 149.63ZM110.243 181.298C111.791 186.579 113.324 191.909 114.843 197.279L116.768 196.734C115.247 191.359 113.712 186.023 112.162 180.735L110.243 181.298ZM119.294 213.241C120.754 218.549 122.205 223.888 123.648 229.249L125.579 228.729C124.135 223.365 122.684 218.023 121.222 212.711L119.294 213.241ZM127.936 245.303C129.351 250.636 130.761 255.982 132.169 261.336L134.103 260.827C132.695 255.473 131.284 250.125 129.869 244.79L127.936 245.303ZM136.387 277.396C137.792 282.748 139.198 288.099 140.607 293.44L142.541 292.93C141.132 287.59 139.727 282.24 138.322 276.889L136.387 277.396ZM144.865 309.504C146.295 314.867 147.731 320.214 149.175 325.536L151.105 325.012C149.662 319.693 148.227 314.35 146.797 308.988L144.865 309.504ZM153.566 341.531C155.061 346.907 156.567 352.249 158.087 357.548L160.01 356.997C158.491 351.703 156.987 346.366 155.493 340.995L153.566 341.531ZM162.74 373.469C164.334 378.817 165.946 384.111 167.579 389.343L169.488 388.747C167.858 383.524 166.249 378.238 164.657 372.898L162.74 373.469ZM172.666 405.214C174.419 410.534 176.199 415.776 178.008 420.929L179.895 420.266C178.091 415.126 176.315 409.897 174.566 404.588L172.666 405.214ZM183.664 436.475C185.665 441.776 187.705 446.964 189.786 452.027L191.636 451.266C189.562 446.223 187.53 441.053 185.535 435.768L183.664 436.475ZM196.388 467.327C198.73 472.487 201.125 477.487 203.58 482.311L205.363 481.404C202.923 476.609 200.54 471.636 198.21 466.501L196.388 467.327ZM211.51 496.894C214.381 501.821 217.334 506.512 220.374 510.944L222.024 509.812C219.014 505.425 216.087 500.776 213.238 495.887L211.51 496.894ZM230.429 524.233C234.143 528.654 237.986 532.705 241.967 536.352L243.318 534.877C239.408 531.295 235.625 527.308 231.96 522.946L230.429 524.233ZM255.235 546.622C260.04 549.691 265.035 552.207 270.235 554.121L270.925 552.244C265.87 550.384 261.004 547.934 256.312 544.937L255.235 546.622ZM286.513 558.012C289.29 558.336 292.118 558.5 295 558.5V556.5C292.195 556.5 289.444 556.34 286.744 556.025L286.513 558.012ZM295 558.5C297.722 558.5 300.559 558.5 303.506 558.499L303.506 556.499C300.558 556.5 297.722 556.5 295 556.5V558.5ZM320.811 558.486C326.267 558.479 332 558.467 337.994 558.449L337.988 556.449C331.995 556.467 326.263 556.479 320.808 556.487L320.811 558.486ZM355.231 558.379C360.801 558.351 366.555 558.316 372.481 558.274L372.466 556.274C366.542 556.316 360.79 556.351 355.221 556.379L355.231 558.379ZM389.732 558.13C395.354 558.076 401.107 558.015 406.984 557.945L406.961 555.945C401.085 556.015 395.333 556.076 389.713 556.13L389.732 558.13ZM424.243 557.719C429.902 557.637 435.661 557.548 441.513 557.448L441.479 555.449C435.629 555.548 429.872 555.638 424.215 555.719L424.243 557.719ZM458.798 557.133C464.463 557.022 470.205 556.902 476.021 556.772L475.976 554.773C470.163 554.902 464.422 555.022 458.759 555.133L458.798 557.133ZM493.23 556.364C498.916 556.221 504.663 556.069 510.467 555.907L510.411 553.908C504.609 554.07 498.864 554.222 493.18 554.365L493.23 556.364ZM527.729 555.398C533.441 555.221 539.202 555.034 545.008 554.837L544.94 552.838C539.136 553.035 533.377 553.222 527.667 553.399L527.729 555.398ZM562.202 554.225C567.907 554.013 573.65 553.79 579.429 553.557L579.348 551.558C573.572 551.792 567.83 552.014 562.128 552.226L562.202 554.225ZM596.682 552.831C602.4 552.58 608.148 552.319 613.924 552.046L613.829 550.048C608.056 550.321 602.31 550.582 596.595 550.832L596.682 552.831ZM631.129 551.202C636.851 550.911 642.595 550.609 648.359 550.294L648.25 548.297C642.489 548.611 636.747 548.914 631.028 549.205L631.129 551.202ZM665.602 549.32C671.32 548.985 677.054 548.639 682.801 548.28L682.677 546.284C676.932 546.643 671.201 546.989 665.485 547.323L665.602 549.32ZM700.015 547.169C705.745 546.787 711.486 546.392 717.233 545.984L717.091 543.989C711.347 544.397 705.609 544.791 699.882 545.173L700.015 547.169ZM734.432 544.723C740.162 544.29 745.895 543.843 751.63 543.383L751.47 541.389C745.738 541.849 740.008 542.296 734.281 542.729L734.432 544.723ZM768.823 541.959C774.553 541.47 780.282 540.966 786.005 540.448L785.825 538.456C780.105 538.974 774.38 539.477 768.653 539.966L768.823 541.959ZM803.187 538.845C808.918 538.294 814.64 537.728 820.352 537.146L820.149 535.157C814.442 535.738 808.723 536.304 802.995 536.854L803.187 538.845ZM837.5 535.347C843.236 534.728 848.957 534.092 854.661 533.439L854.433 531.452C848.734 532.104 843.017 532.74 837.286 533.359L837.5 535.347ZM871.794 531.418C877.514 530.724 883.213 530.012 888.888 529.281L888.633 527.298C882.963 528.028 877.268 528.739 871.553 529.433L871.794 531.418ZM906.015 527.011C911.743 526.229 917.442 525.427 923.11 524.606L922.823 522.626C917.161 523.447 911.467 524.248 905.745 525.029L906.015 527.011ZM940.156 522.06C945.872 521.18 951.551 520.279 957.189 519.356L956.866 517.382C951.234 518.304 945.561 519.204 939.852 520.083L940.156 522.06ZM974.233 516.479C977.059 515.986 979.874 515.488 982.677 514.984L982.323 513.016C979.523 513.519 976.712 514.016 973.889 514.508L974.233 516.479ZM982.677 514.984C985.536 514.47 988.34 513.891 991.092 513.25L990.637 511.302C987.92 511.936 985.149 512.508 982.323 513.016L982.677 514.984ZM1007.32 508.539C1012.75 506.634 1017.95 504.461 1022.93 502.038L1022.05 500.24C1017.14 502.629 1012.01 504.772 1006.66 506.652L1007.32 508.539ZM1037.67 493.757C1042.45 490.687 1047.01 487.364 1051.35 483.811L1050.08 482.263C1045.8 485.769 1041.31 489.046 1036.59 492.074L1037.67 493.757ZM1063.84 472.405C1067.78 468.397 1071.52 464.183 1075.09 459.784L1073.53 458.526C1070.01 462.877 1066.31 467.043 1062.41 471.002L1063.84 472.405ZM1085.14 446.199C1088.28 441.569 1091.26 436.785 1094.09 431.871L1092.36 430.872C1089.55 435.748 1086.59 440.49 1083.49 445.077L1085.14 446.199ZM1102.05 416.981C1104.54 411.975 1106.9 406.866 1109.16 401.672L1107.32 400.877C1105.08 406.041 1102.73 411.119 1100.26 416.092L1102.05 416.981ZM1115.52 386.051C1117.53 380.823 1119.44 375.532 1121.27 370.199L1119.38 369.55C1117.55 374.863 1115.65 380.131 1113.65 385.335L1115.52 386.051ZM1126.5 354.177C1128.17 348.813 1129.78 343.425 1131.33 338.031L1129.41 337.479C1127.86 342.86 1126.26 348.234 1124.59 353.582L1126.5 354.177ZM1135.83 321.798C1137.3 316.35 1138.72 310.914 1140.12 305.51L1138.18 305.012C1136.79 310.41 1135.37 315.839 1133.9 321.278L1135.83 321.798ZM1144.27 289.195C1145.65 283.694 1147.02 278.25 1148.38 272.879L1146.45 272.388C1145.08 277.76 1143.71 283.208 1142.33 288.706L1144.27 289.195ZM1152.58 256.597C1154.03 251.077 1155.49 245.667 1156.97 240.392L1155.05 239.85C1153.56 245.139 1152.09 250.561 1150.64 256.089L1152.58 256.597ZM1161.74 224.294C1163.48 218.766 1165.27 213.44 1167.13 208.347L1165.25 207.66C1163.38 212.787 1161.58 218.144 1159.84 223.695L1161.74 224.294ZM1173.43 192.805C1175.82 187.499 1178.35 182.567 1181.05 178.059L1179.34 177.031C1176.59 181.617 1174.03 186.62 1171.6 191.982L1173.43 192.805ZM1190.86 164.546C1194.71 160.251 1198.88 156.698 1203.42 153.976L1202.39 152.26C1197.65 155.101 1193.33 158.79 1189.37 163.211L1190.86 164.546ZM1218.73 148.301C1221.36 147.851 1224.11 147.619 1226.99 147.619V145.619C1224.01 145.619 1221.14 145.859 1218.39 146.33L1218.73 148.301ZM1226.99 147.619C1228.7 147.619 1231.62 147.855 1235.55 148.371L1235.81 146.388C1231.86 145.869 1228.83 145.619 1226.99 145.619V147.619ZM1252.74 151.317C1257.94 152.375 1263.68 153.675 1269.8 155.241L1270.3 153.303C1264.14 151.729 1258.37 150.421 1253.14 149.357L1252.74 151.317ZM1286.66 159.97C1292.05 161.623 1297.61 163.461 1303.24 165.495L1303.92 163.614C1298.26 161.568 1292.67 159.72 1287.24 158.058L1286.66 159.97ZM1319.52 171.876C1324.84 174.136 1330.15 176.575 1335.38 179.204L1336.28 177.417C1331 174.767 1325.65 172.31 1320.3 170.035L1319.52 171.876ZM1350.68 187.605C1355.69 190.618 1360.56 193.829 1365.21 197.245L1366.39 195.633C1361.69 192.177 1356.77 188.933 1351.71 185.891L1350.68 187.605ZM1378.65 208.313C1382.95 212.303 1386.94 216.524 1390.55 220.985L1392.1 219.728C1388.43 215.186 1384.38 210.896 1380.01 206.847L1378.65 208.313ZM1400.26 235.345C1403.05 240.381 1405.36 245.675 1407.11 251.239L1409.02 250.638C1407.22 244.94 1404.86 239.523 1402.01 234.377L1400.26 235.345ZM1410.58 268.189C1410.86 271.016 1411 273.904 1411 276.856H1413C1413 273.839 1412.85 270.885 1412.57 267.992L1410.58 268.189Z" fill="white"/>
<path d="M1122.82 355.387C1121.61 359.586 1120.87 364.94 1121.78 365.193C1122.69 365.447 1124.91 360.528 1126.11 356.315C1126.21 355.929 1126.32 355.556 1126.42 355.194C1126.97 354.932 1128.1 354.379 1129.54 353.671C1129.53 353.681 1129.5 353.7 1129.49 353.71L1129.16 354.841C1129.11 354.98 1129.22 355.133 1129.39 355.161L1130.49 355.47C1130.65 355.523 1130.81 355.452 1130.84 355.299L1131.17 354.168C1131.17 354.168 1131.17 354.045 1131.14 353.98L1131.53 352.663C1132.75 352.065 1134.09 351.411 1135.41 350.768L1135.09 351.875C1135.04 352.013 1135.15 352.166 1135.31 352.195L1136.41 352.504C1136.57 352.556 1136.73 352.486 1136.77 352.333L1137.1 351.202C1137.1 351.202 1137.09 351.079 1137.07 351.014L1137.44 349.744C1140.79 348.101 1143.59 346.705 1143.65 346.618C1143.81 346.401 1144.23 344.723 1144.23 344.723C1144.35 344.327 1144.39 344.004 1144.36 343.986C1144.31 343.978 1144.15 344.404 1144.04 344.776L1137.09 346.674C1137.15 346.355 1137.15 346.109 1137.06 346.083C1136.96 346.053 1136.8 346.355 1136.69 346.742L1136.69 346.789L1135.32 347.155C1135.38 346.86 1135.37 346.614 1135.29 346.588C1135.18 346.558 1135.02 346.86 1134.92 347.247L1133.69 347.599L1132.78 347.592C1132.87 347.239 1132.88 346.936 1132.8 346.91C1132.7 346.88 1132.53 347.182 1132.43 347.569L1132.42 347.579L1130.64 347.582C1130.73 347.229 1130.74 346.926 1130.65 346.91C1130.54 346.88 1130.38 347.183 1130.28 347.569L1128.64 347.559C1129.42 344.73 1129.71 343.605 1130.29 341.516C1130.9 339.416 1131.33 337.35 1131.61 335.587C1133.43 334.673 1137.06 332.918 1137.06 332.918L1137.5 331.77L1132.04 331.538C1132.05 331.135 1132.06 330.818 1132.02 330.592C1132.21 329.706 1132.29 329.145 1132.21 329.119C1132.13 329.093 1131.9 329.592 1131.61 330.424C1131.47 330.608 1131.31 330.91 1131.09 331.29L1126.3 328.564L1126.04 329.769C1126.04 329.769 1128.33 333.413 1129.36 335.093C1128.69 336.692 1127.96 338.549 1127.24 340.543C1126.49 343.144 1126.13 344.28 1125.42 346.667L1124.03 345.807C1124.14 345.397 1124.16 345.07 1124.05 345.04C1123.97 345.014 1123.82 345.269 1123.7 345.628L1122.17 344.682L1122.18 344.672C1122.29 344.262 1122.3 343.921 1122.2 343.905C1122.12 343.879 1121.96 344.144 1121.85 344.493L1121.08 344.032L1120.2 343.087C1120.32 342.691 1120.33 342.35 1120.22 342.32C1120.14 342.294 1120.01 342.491 1119.91 342.792L1118.94 341.746L1118.97 341.726C1119.07 341.316 1119.08 340.975 1118.98 340.945C1118.9 340.919 1118.76 341.141 1118.66 341.442L1113.78 336.144C1113.86 335.768 1113.97 335.32 1113.93 335.302C1113.88 335.294 1113.76 335.591 1113.64 335.987C1113.64 335.987 1113.1 337.644 1113.14 337.894C1113.14 337.994 1114.78 340.658 1116.74 343.83L1116.36 345.099C1116.36 345.099 1116.25 345.178 1116.23 345.236L1115.9 346.366C1115.85 346.505 1115.96 346.658 1116.13 346.686L1117.22 346.996C1117.39 347.048 1117.55 346.977 1117.58 346.825L1117.91 345.717C1118.69 346.963 1119.46 348.209 1120.19 349.386L1119.81 350.703C1119.81 350.703 1119.7 350.782 1119.68 350.839L1119.35 351.97C1119.3 352.109 1119.41 352.262 1119.58 352.29L1120.67 352.599C1120.84 352.652 1120.99 352.581 1121.03 352.428L1121.36 351.297C1121.36 351.297 1121.34 351.27 1121.35 351.222C1122.18 352.575 1122.85 353.63 1123.17 354.151C1123.08 354.514 1122.96 354.886 1122.85 355.282L1122.82 355.387Z" fill="white"/>
</svg>
