<svg width="205" height="181" viewBox="0 0 205 181" fill="none" xmlns="http://www.w3.org/2000/svg">
<path opacity="0.2" fill-rule="evenodd" clip-rule="evenodd" d="M137.983 179.748C143.888 177.504 153.103 172.573 159.771 168.091C167.748 162.728 178.709 152.5 184.168 145.325C193.972 132.438 199.101 119.331 202.049 99.6276C204.031 86.3787 204.172 83.0149 204.355 44.5594C204.549 3.66096 204.726 6.2281 201.486 2.98775C198.359 -0.139618 200.209 0.000945675 162.121 0.000942345C125.334 0.000939129 126.622 -0.074134 123.582 2.24424C122.806 2.83601 121.686 4.14573 121.093 5.15438L120.015 6.98878L119.906 41.8342L119.798 76.6796L120.661 78.6853C121.674 81.04 124.454 83.6642 126.554 84.2476C127.415 84.4864 134.589 84.6501 144.272 84.6513L160.544 84.6537L160.544 87.1645C160.544 92.8814 158.914 102.583 156.874 109.011C154.161 117.557 150.022 124.448 144.027 130.399C139.136 135.254 133.472 139.109 125.511 143.005C119.689 145.853 118.815 146.56 117.216 149.719C116.792 150.555 116.51 152.046 116.496 153.52C116.476 155.654 116.742 156.52 118.708 160.729C126.192 176.746 126.804 177.762 129.931 179.357C132.223 180.527 135.515 180.686 137.983 179.748ZM19.9039 180.041C22.1168 179.632 32.5224 174.541 38.157 171.109C55.2512 160.698 68.5948 146.75 76.4032 131.13C82.1129 119.709 84.9412 108.171 86.9329 88.1716C87.4624 82.8568 87.6141 74.9102 87.7571 44.9619C87.9548 3.61464 88.1337 6.23288 84.8885 2.98774C81.7615 -0.139232 83.6091 0.000935481 45.5441 0.000932153C8.44185 0.00092891 9.74237 -0.0797442 6.72522 2.40713C5.93379 3.0596 4.82094 4.52745 4.25192 5.66905L3.21773 7.74464L3.2265 42.3058C3.23528 76.2124 3.25086 76.9012 4.04868 78.6641C4.98345 80.7297 6.40937 82.3385 8.4087 83.5835C9.77392 84.4341 10.2028 84.4588 26.9708 84.6537L44.1354 84.8533L44.0136 88.0478C43.6985 96.2986 41.7068 106.118 38.9404 113.055C36.0961 120.187 32.6897 125.39 27.5203 130.496C22.8156 135.143 18.0124 138.455 10.4727 142.248C3.24486 145.884 1.22476 147.56 0.406588 150.598C-0.561735 154.194 -0.0517862 156.006 4.71391 165.912C7.37369 171.441 9.73396 175.794 10.6444 176.85C12.9572 179.532 16.3417 180.699 19.9039 180.041Z" fill="#42A7C3"/>
</svg>
