<svg width="155" height="155" viewBox="0 0 155 155" fill="none" xmlns="http://www.w3.org/2000/svg">
<g clip-path="url(#clip0_76_2147)">
<path d="M155 118.544H0V118.621H155V118.544Z" fill="#EBEBEB"/>
<path d="M102.678 124.375H99.9844V124.453H102.678V124.375Z" fill="#EBEBEB"/>
<path d="M53.6985 120.522H46.5127V120.599H53.6985V120.522Z" fill="#EBEBEB"/>
<path d="M142.219 122.183H124.651V122.261H142.219V122.183Z" fill="#EBEBEB"/>
<path d="M30.8109 122.183H13.2432V122.261H30.8109V122.183Z" fill="#EBEBEB"/>
<path d="M73.4696 104.718H13.6117C13.1428 104.717 12.6934 104.53 12.3621 104.198C12.0308 103.867 11.8447 103.417 11.8447 102.948V18.8045C11.8488 18.3383 12.0367 17.8925 12.3675 17.564C12.6984 17.2354 13.1455 17.0507 13.6117 17.0499H73.4696C73.9391 17.0499 74.3893 17.2364 74.7213 17.5684C75.0532 17.9003 75.2397 18.3506 75.2397 18.82V102.948C75.2397 103.417 75.0532 103.868 74.7213 104.199C74.3893 104.531 73.9391 104.718 73.4696 104.718ZM13.6117 17.1119C13.1634 17.1127 12.7336 17.2914 12.4169 17.6088C12.1001 17.9261 11.9222 18.3562 11.9222 18.8045V102.948C11.9222 103.396 12.1001 103.826 12.4169 104.144C12.7336 104.461 13.1634 104.64 13.6117 104.64H73.4696C73.9183 104.64 74.3483 104.461 74.6656 104.144C74.9828 103.827 75.1614 103.396 75.1622 102.948V18.8045C75.1614 18.3559 74.9828 17.9258 74.6656 17.6086C74.3483 17.2913 73.9183 17.1127 73.4696 17.1119H13.6117Z" fill="#EBEBEB"/>
<path d="M140.526 104.718H80.6646C80.1954 104.717 79.7457 104.53 79.4139 104.199C79.0821 103.867 78.8954 103.417 78.8945 102.948V18.8045C78.8994 18.338 79.088 17.8922 79.4193 17.5638C79.7507 17.2353 80.1981 17.0507 80.6646 17.0499H140.526C140.991 17.0515 141.438 17.2366 141.768 17.5651C142.098 17.8935 142.285 18.3388 142.29 18.8045V102.948C142.29 103.416 142.104 103.866 141.773 104.197C141.443 104.529 140.994 104.716 140.526 104.718ZM80.6646 17.1119C80.216 17.1127 79.7859 17.2913 79.4687 17.6086C79.1514 17.9258 78.9729 18.3559 78.972 18.8045V102.948C78.9729 103.396 79.1514 103.827 79.4687 104.144C79.7859 104.461 80.216 104.64 80.6646 104.64H140.526C140.974 104.64 141.404 104.461 141.722 104.144C142.039 103.827 142.217 103.396 142.218 102.948V18.8045C142.217 18.3559 142.039 17.9258 141.722 17.6086C141.404 17.2913 140.974 17.1127 140.526 17.1119H80.6646Z" fill="#EBEBEB"/>
<path d="M55.9143 66.7491H114.842C115.156 66.7522 115.467 66.69 115.755 66.5666C116.044 66.4431 116.303 66.261 116.517 66.0319C116.732 65.8028 116.896 65.5316 117 65.2356C117.104 64.9396 117.145 64.6253 117.121 64.3125L113.791 12.7099C113.739 12.0534 113.444 11.44 112.963 10.9895C112.483 10.5389 111.852 10.2836 111.194 10.2733H52.2687C51.9548 10.2698 51.6436 10.3317 51.3549 10.455C51.0661 10.5782 50.8062 10.7602 50.5916 10.9894C50.377 11.2186 50.2125 11.4899 50.1084 11.7861C50.0043 12.0823 49.963 12.3969 49.9871 12.7099L53.3196 64.3125C53.372 64.9685 53.6667 65.5815 54.1464 66.032C54.6261 66.4824 55.2564 66.7381 55.9143 66.7491Z" fill="#EBEBEB"/>
<path d="M116.086 63.9994L112.952 15.472C112.92 15.0037 112.712 14.5648 112.37 14.2434C112.028 13.9221 111.577 13.7419 111.107 13.7391H52.8024C52.5789 13.7357 52.3573 13.7792 52.1516 13.8666C51.9459 13.954 51.7608 14.0834 51.6081 14.2466C51.4555 14.4098 51.3386 14.6031 51.2651 14.8141C51.1915 15.0252 51.1629 15.2492 51.1811 15.472L54.3152 63.9994C54.35 64.4669 54.5587 64.9045 54.9001 65.2258C55.2415 65.5471 55.6909 65.7289 56.1597 65.7354H114.464C114.688 65.7383 114.91 65.6944 115.115 65.6067C115.321 65.5189 115.506 65.3892 115.659 65.2257C115.812 65.0623 115.928 64.8688 116.002 64.6576C116.075 64.4465 116.104 64.2222 116.086 63.9994Z" fill="#FAFAFA"/>
<path d="M89.8036 46.0473H107.771L105.889 15.5743H87.9219L89.8036 46.0473Z" fill="#F5F5F5"/>
<path d="M63.3452 37.5317H75.9777L74.654 16.1045H62.0215L63.3452 37.5317Z" fill="#F5F5F5"/>
<path d="M52.2688 10.2857H111.194C111.85 10.2956 112.48 10.5492 112.96 10.9972C113.44 11.4452 113.736 12.0556 113.791 12.7099H49.9872C49.9649 12.3978 50.0075 12.0846 50.1124 11.7898C50.2173 11.4951 50.3821 11.2253 50.5965 10.9975C50.8109 10.7697 51.0702 10.5889 51.3581 10.4663C51.6459 10.3438 51.956 10.2823 52.2688 10.2857Z" fill="#F5F5F5"/>
<path d="M109.755 11.5041C109.768 11.6619 109.838 11.8096 109.952 11.9189C110.066 12.0282 110.217 12.0913 110.375 12.0962C110.452 12.0973 110.528 12.0825 110.598 12.0526C110.668 12.0227 110.731 11.9785 110.784 11.9228C110.836 11.867 110.876 11.801 110.901 11.7289C110.926 11.6568 110.936 11.5803 110.93 11.5041C110.918 11.3463 110.848 11.1986 110.734 11.0893C110.619 10.98 110.468 10.9169 110.31 10.912C110.234 10.9114 110.158 10.9265 110.088 10.9566C110.018 10.9866 109.955 11.0308 109.903 11.0865C109.851 11.1421 109.811 11.2079 109.785 11.2798C109.76 11.3517 109.75 11.4281 109.755 11.5041Z" fill="white"/>
<path d="M106.876 11.5039C106.888 11.6617 106.958 11.8094 107.072 11.9187C107.187 12.028 107.338 12.0911 107.496 12.096C107.572 12.0971 107.648 12.0822 107.718 12.0524C107.788 12.0225 107.852 11.9783 107.904 11.9226C107.956 11.8668 107.996 11.8008 108.022 11.7287C108.047 11.6566 108.057 11.58 108.051 11.5039C108.038 11.3461 107.968 11.1984 107.854 11.0891C107.74 10.9798 107.589 10.9167 107.431 10.9118C107.354 10.9107 107.279 10.9256 107.208 10.9554C107.138 10.9853 107.075 11.0295 107.022 11.0852C106.97 11.141 106.93 11.207 106.905 11.2791C106.88 11.3512 106.87 11.4278 106.876 11.5039Z" fill="white"/>
<path d="M103.996 11.5039C104.008 11.6617 104.078 11.8094 104.192 11.9187C104.307 12.028 104.458 12.0911 104.616 12.096C104.692 12.0966 104.768 12.0815 104.838 12.0514C104.908 12.0214 104.971 11.9772 105.023 11.9215C105.075 11.8659 105.115 11.8001 105.141 11.7282C105.166 11.6563 105.176 11.5799 105.171 11.5039C105.159 11.3461 105.089 11.1984 104.974 11.0891C104.86 10.9798 104.709 10.9167 104.551 10.9118C104.474 10.9107 104.399 10.9256 104.328 10.9554C104.258 10.9853 104.195 11.0295 104.142 11.0852C104.09 11.141 104.05 11.207 104.025 11.2791C104 11.3512 103.99 11.4278 103.996 11.5039Z" fill="white"/>
<path d="M25.9411 90.2099H98.9058C99.2948 90.214 99.6803 90.1372 100.038 89.9844C100.396 89.8316 100.718 89.606 100.984 89.3221C101.249 89.0381 101.453 88.702 101.582 88.3351C101.711 87.9681 101.763 87.5783 101.733 87.1905L97.6069 23.3212C97.5436 22.5078 97.179 21.7474 96.5843 21.1889C95.9897 20.6304 95.2079 20.314 94.3922 20.3018H21.4275C21.0379 20.2953 20.6512 20.3704 20.2924 20.5225C19.9336 20.6745 19.6106 20.9 19.3442 21.1844C19.0779 21.4689 18.8741 21.806 18.746 22.174C18.6178 22.542 18.5682 22.9328 18.6003 23.3212L22.7233 87.1998C22.7902 88.0115 23.1567 88.7693 23.7514 89.3257C24.3462 89.882 25.1267 90.1972 25.9411 90.2099Z" fill="#F5F5F5"/>
<path d="M100.44 86.8153L96.5678 26.7249C96.523 26.1469 96.2639 25.6064 95.8412 25.2096C95.4185 24.8127 94.8628 24.5881 94.2831 24.5797H22.0872C21.8108 24.5763 21.5368 24.6305 21.2826 24.739C21.0284 24.8474 20.7996 25.0077 20.6108 25.2096C20.422 25.4115 20.2775 25.6505 20.1863 25.9114C20.0952 26.1724 20.0595 26.4494 20.0815 26.7249L23.9596 86.8153C24.0022 87.3951 24.2603 87.9378 24.6832 88.3366C25.1061 88.7354 25.6631 88.9613 26.2443 88.9698H98.4402C98.7168 88.9721 98.9908 88.9167 99.2447 88.8071C99.4986 88.6975 99.727 88.5363 99.9151 88.3335C100.103 88.1308 100.247 87.8911 100.337 87.6297C100.428 87.3683 100.463 87.091 100.44 86.8153Z" fill="white"/>
<path d="M55.9669 65.8718H78.2125L75.8813 28.1417H53.6357L55.9669 65.8718Z" fill="#F5F5F5"/>
<path d="M30.0608 58.0784H45.7034L44.0666 31.5455H28.4209L30.0608 58.0784Z" fill="#F5F5F5"/>
<path d="M29.6325 78.5756H36.5362L35.8108 66.87H28.9102L29.6325 78.5756Z" fill="#F5F5F5"/>
<path d="M38.651 78.5756H45.5516L44.8293 66.87H37.9287L38.651 78.5756Z" fill="#F5F5F5"/>
<path d="M21.4275 20.3018H94.3922C95.2079 20.314 95.9897 20.6304 96.5843 21.1889C97.179 21.7474 97.5436 22.5078 97.6069 23.3212H18.6003C18.5682 22.9328 18.6178 22.542 18.746 22.174C18.8741 21.806 19.0779 21.4689 19.3442 21.1844C19.6106 20.9 19.9336 20.6745 20.2924 20.5225C20.6512 20.3704 21.0379 20.2953 21.4275 20.3018Z" fill="#EBEBEB"/>
<path d="M93.8922 22.3418C94.1649 22.0601 94.1427 21.5962 93.8425 21.3057C93.5424 21.0151 93.078 21.0079 92.8053 21.2896C92.5326 21.5713 92.5548 22.0352 92.855 22.3258C93.1551 22.6163 93.6195 22.6235 93.8922 22.3418Z" fill="white"/>
<path d="M89.0443 21.8115C89.059 22.0087 89.1471 22.1932 89.2911 22.3286C89.4352 22.464 89.6247 22.5406 89.8224 22.5431C89.9179 22.5465 90.013 22.5297 90.1014 22.4936C90.1899 22.4576 90.2697 22.4032 90.3356 22.3341C90.4015 22.265 90.452 22.1826 90.4838 22.0926C90.5155 22.0025 90.5279 21.9067 90.5199 21.8115C90.505 21.6123 90.4152 21.426 90.2685 21.2903C90.1219 21.1545 89.9293 21.0794 89.7294 21.0799C89.635 21.0783 89.5413 21.0965 89.4543 21.1333C89.3673 21.1701 89.2891 21.2248 89.2245 21.2937C89.16 21.3626 89.1106 21.4443 89.0795 21.5335C89.0485 21.6227 89.0365 21.7174 89.0443 21.8115Z" fill="white"/>
<path d="M85.4767 21.8115C85.4928 22.0087 85.5817 22.1928 85.7261 22.328C85.8705 22.4632 86.0601 22.5399 86.2579 22.5431C86.3521 22.5442 86.4456 22.5257 86.5324 22.4887C86.6191 22.4518 86.6972 22.3971 86.7617 22.3283C86.8261 22.2595 86.8755 22.178 86.9067 22.089C86.9379 22 86.9503 21.9055 86.943 21.8115C86.9282 21.6138 86.8397 21.4289 86.695 21.2934C86.5503 21.1579 86.36 21.0817 86.1618 21.0799C86.0675 21.0787 85.974 21.0972 85.8872 21.1342C85.8005 21.1712 85.7224 21.2259 85.658 21.2947C85.5935 21.3635 85.5441 21.445 85.5129 21.534C85.4817 21.623 85.4693 21.7175 85.4767 21.8115Z" fill="white"/>
<path d="M130.321 113.906H75.0204C74.7258 113.909 74.4339 113.851 74.1631 113.735C73.8923 113.619 73.6485 113.448 73.4474 113.233C73.2462 113.018 73.092 112.763 72.9945 112.485C72.8971 112.207 72.8586 111.912 72.8814 111.619L76.0062 63.2182C76.0533 62.6012 76.3294 62.0241 76.7802 61.6003C77.231 61.1764 77.824 60.9364 78.4428 60.9273H133.741C134.035 60.9248 134.328 60.9834 134.598 61.0996C134.869 61.2158 135.113 61.387 135.315 61.6024C135.516 61.8177 135.671 62.0726 135.768 62.3507C135.866 62.6288 135.905 62.9242 135.883 63.2182L132.758 111.619C132.71 112.235 132.434 112.811 131.983 113.235C131.532 113.658 130.94 113.897 130.321 113.906Z" fill="#F5F5F5"/>
<path d="M73.8672 111.327L76.806 65.7973C76.8392 65.3591 77.0351 64.9492 77.3552 64.648C77.6752 64.3469 78.0963 64.1763 78.5358 64.1698H133.241C133.451 64.167 133.659 64.208 133.852 64.2902C134.045 64.3724 134.219 64.494 134.362 64.6472C134.505 64.8004 134.615 64.9818 134.684 65.1799C134.753 65.3779 134.78 65.5882 134.764 65.7973L131.822 111.327C131.789 111.765 131.593 112.176 131.273 112.477C130.953 112.778 130.532 112.949 130.092 112.955H75.3862C75.1767 112.957 74.969 112.916 74.7764 112.833C74.5838 112.751 74.4104 112.629 74.2675 112.476C74.1245 112.323 74.0151 112.142 73.9462 111.944C73.8773 111.746 73.8503 111.536 73.8672 111.327Z" fill="white"/>
<path d="M107.57 95.4582H90.7148L92.4787 66.87H109.337L107.57 95.4582Z" fill="#F5F5F5"/>
<path d="M124.977 109.873H106.935L108.826 79.2732H126.868L124.977 109.873Z" fill="#F5F5F5"/>
<path d="M133.741 60.9273H78.4552C77.8364 60.9364 77.2434 61.1764 76.7926 61.6003C76.3418 62.0241 76.0657 62.6012 76.0186 63.2182H135.883C135.905 62.9242 135.866 62.6288 135.768 62.3507C135.67 62.0726 135.516 61.8177 135.315 61.6024C135.113 61.387 134.869 61.2158 134.598 61.0996C134.327 60.9834 134.035 60.9248 133.741 60.9273Z" fill="#EBEBEB"/>
<path d="M79.8028 62.0712C79.7919 62.2206 79.7254 62.3606 79.6163 62.4633C79.5073 62.5661 79.3636 62.6242 79.2138 62.6261C79.1422 62.6272 79.0711 62.6133 79.0051 62.5853C78.9392 62.5574 78.8798 62.516 78.8308 62.4637C78.7818 62.4115 78.7442 62.3496 78.7205 62.282C78.6967 62.2144 78.6874 62.1426 78.693 62.0712C78.7085 61.923 78.7769 61.7853 78.8856 61.6834C78.9944 61.5815 79.1362 61.5222 79.2851 61.5163C79.3566 61.5152 79.4275 61.5291 79.4933 61.557C79.5592 61.585 79.6184 61.6265 79.6671 61.6788C79.7159 61.7311 79.7532 61.793 79.7766 61.8606C79.7999 61.9282 79.8089 61.9999 79.8028 62.0712Z" fill="white"/>
<path d="M82.5069 62.0711C82.496 62.2206 82.4295 62.3605 82.3204 62.4633C82.2114 62.566 82.0677 62.6241 81.9179 62.626C81.8463 62.6271 81.7752 62.6132 81.7092 62.5853C81.6433 62.5573 81.5839 62.5159 81.5349 62.4637C81.4859 62.4114 81.4483 62.3495 81.4246 62.2819C81.4008 62.2144 81.3915 62.1425 81.3971 62.0711C81.4087 61.9214 81.4759 61.7815 81.5855 61.6788C81.695 61.5761 81.839 61.5181 81.9892 61.5162C82.0604 61.5161 82.1309 61.5306 82.1963 61.5589C82.2617 61.5872 82.3205 61.6287 82.3691 61.6808C82.4177 61.7329 82.455 61.7944 82.4787 61.8616C82.5024 61.9288 82.512 62.0001 82.5069 62.0711Z" fill="white"/>
<path d="M85.2096 62.0711C85.1968 62.2176 85.1307 62.3544 85.0239 62.4555C84.9171 62.5566 84.7769 62.6151 84.6299 62.6198C84.5584 62.6209 84.4875 62.6071 84.4217 62.5791C84.3558 62.5511 84.2966 62.5096 84.2479 62.4573C84.1991 62.405 84.1618 62.3431 84.1384 62.2755C84.1151 62.2079 84.1061 62.1362 84.1122 62.0649C84.1237 61.9157 84.1905 61.7762 84.2994 61.6736C84.4083 61.571 84.5516 61.5126 84.7012 61.51C84.7722 61.511 84.8423 61.5267 84.907 61.5559C84.9717 61.5852 85.0297 61.6274 85.0774 61.68C85.1251 61.7327 85.1614 61.7946 85.1842 61.8618C85.2069 61.9291 85.2156 62.0003 85.2096 62.0711Z" fill="white"/>
<path d="M77.5004 132.544C110.696 132.544 137.606 130.972 137.606 129.034C137.606 127.096 110.696 125.525 77.5004 125.525C44.3049 125.525 17.3945 127.096 17.3945 129.034C17.3945 130.972 44.3049 132.544 77.5004 132.544Z" fill="#F5F5F5"/>
<path d="M125.146 38.6704L124.938 41.3875L125.248 41.411L125.455 38.694L125.146 38.6704Z" fill="#42A7C3"/>
<path d="M125.952 28.2546L125.375 35.809L125.684 35.8326L126.261 28.2782L125.952 28.2546Z" fill="#42A7C3"/>
<path d="M126.071 16.588H72.7507L65.9648 105.189H119.285L126.071 16.588Z" fill="#42A7C3"/>
<g opacity="0.7">
<path d="M124.065 14.418H70.7449L63.959 103.019H117.279L124.065 14.418Z" fill="#42A7C3"/>
<path opacity="0.9" d="M124.065 14.418H70.7449L63.959 103.019H117.279L124.065 14.418Z" fill="white"/>
</g>
<path d="M85.1848 24.6759H74.8525L75.054 22.0347H85.3863L85.1848 24.6759Z" fill="#42A7C3"/>
<path d="M102.756 30.4821H74.4062L74.6108 27.8409H102.957L102.756 30.4821Z" fill="white"/>
<path d="M111.603 24.6759H88.2852L88.4867 22.0347H111.808L111.603 24.6759Z" fill="white"/>
<path d="M99.9346 42.0978H112.13L112.331 39.4597H100.139L99.9346 42.0978Z" fill="white"/>
<path d="M107.127 33.6504H74.1644L73.9629 36.2916H106.925L107.127 33.6504Z" fill="white"/>
<path d="M73.5166 42.0978H96.8348L97.0394 39.4597H73.7212L73.5166 42.0978Z" fill="#42A7C3"/>
<path d="M83.4055 47.9073H73.0732L73.2747 45.2661H83.607L83.4055 47.9073Z" fill="#42A7C3"/>
<path d="M90.6597 53.7137H72.627L72.8285 51.0756H90.8612L90.6597 53.7137Z" fill="white"/>
<path d="M107.142 53.7137H93.7598L93.9613 51.0756H107.344L107.142 53.7137Z" fill="white"/>
<path d="M109.824 47.9073H86.5059L86.7074 45.2661H110.029L109.824 47.9073Z" fill="white"/>
<path d="M98.1553 65.3325H110.351L110.552 62.6913H98.3599L98.1553 65.3325Z" fill="#42A7C3"/>
<path d="M105.347 56.8818H72.3851L72.1836 59.523H105.146L105.347 56.8818Z" fill="white"/>
<path d="M71.7373 65.3325H95.0555L95.2601 62.6913H71.9388L71.7373 65.3325Z" fill="white"/>
<path opacity="0.4" d="M115.351 89.5124H69.8867L71.3189 70.807H116.787L115.351 89.5124Z" fill="white"/>
<path opacity="0.4" d="M115.05 93.437H69.5853L69.1885 98.6047H114.656L115.05 93.437Z" fill="white"/>
<path opacity="0.6" d="M70.0068 51.1869C68.3504 50.2043 67.0228 48.7524 66.1919 47.015C65.3609 45.2776 65.0641 43.3328 65.3388 41.4266C65.6136 39.5204 66.4476 37.7386 67.7354 36.3065C69.0232 34.8745 70.7068 33.8567 72.5732 33.3818C74.4396 32.907 76.405 32.9964 78.2205 33.6389C80.0361 34.2814 81.6203 35.448 82.7726 36.9911C83.9249 38.5342 84.5936 40.3845 84.694 42.3077C84.7944 44.231 84.3221 46.1408 83.3367 47.7955C82.0167 50.0107 79.872 51.6117 77.373 52.2475C74.874 52.8833 72.2249 52.5019 70.0068 51.1869Z" fill="#42A7C3"/>
<mask id="mask0_76_2147" style="mask-type:luminance" maskUnits="userSpaceOnUse" x="65" y="33" width="20" height="20">
<path d="M70.0068 51.1869C68.3504 50.2043 67.0228 48.7524 66.1919 47.015C65.3609 45.2776 65.0641 43.3328 65.3388 41.4266C65.6136 39.5204 66.4476 37.7386 67.7354 36.3065C69.0232 34.8745 70.7068 33.8567 72.5732 33.3818C74.4396 32.907 76.405 32.9964 78.2205 33.6389C80.0361 34.2814 81.6203 35.448 82.7726 36.9911C83.9249 38.5342 84.5936 40.3845 84.694 42.3077C84.7944 44.231 84.3221 46.1408 83.3367 47.7955C82.0167 50.0107 79.872 51.6117 77.373 52.2475C74.874 52.8833 72.2249 52.5019 70.0068 51.1869Z" fill="white"/>
</mask>
<g mask="url(#mask0_76_2147)">
<path d="M67.8413 35.6168L67.8685 35.234C68.2062 35.0275 68.4591 34.8065 68.627 34.5711L68.8813 34.5361L68.7279 36.7413L68.308 36.7992L68.4138 35.2802C68.3344 35.3484 68.2407 35.4136 68.1328 35.4759C68.0259 35.538 67.9287 35.585 67.8413 35.6168ZM69.4097 35.9409C69.3802 35.7268 69.3866 35.5048 69.4289 35.2749C69.481 34.9943 69.5678 34.779 69.6892 34.6289C69.8107 34.4789 69.9567 34.3922 70.1272 34.3686C70.2996 34.3449 70.4496 34.3878 70.5773 34.4976C70.7059 34.6072 70.7867 34.7811 70.8196 35.0194C70.8496 35.2374 70.8407 35.4736 70.7929 35.7279C70.7459 35.9812 70.6626 36.1822 70.5429 36.331C70.4231 36.4788 70.277 36.5646 70.1046 36.5884C69.9322 36.6122 69.7812 36.5693 69.6515 36.4599C69.5229 36.3503 69.4423 36.1773 69.4097 35.9409ZM69.8311 35.9687C69.8468 36.083 69.8763 36.1609 69.9196 36.2023C69.9628 36.2437 70.0135 36.2604 70.0716 36.2524C70.1491 36.2417 70.2129 36.1964 70.2631 36.1164C70.3303 36.0094 70.3754 35.8107 70.3985 35.5202C70.4171 35.2896 70.4173 35.109 70.3993 34.9782C70.3846 34.8716 70.3551 34.7977 70.3109 34.7564C70.2676 34.714 70.2168 34.6968 70.1587 34.7049C70.0851 34.715 70.0246 34.7594 69.9772 34.838C69.9071 34.9523 69.8593 35.143 69.834 35.4101C69.8125 35.641 69.8116 35.8272 69.8311 35.9687ZM71.0662 35.7124C71.0367 35.4984 71.0431 35.2764 71.0854 35.0464C71.1375 34.7658 71.2243 34.5505 71.3457 34.4005C71.4672 34.2504 71.6132 34.1637 71.7837 34.1402C71.9561 34.1164 72.1061 34.1594 72.2338 34.2691C72.3624 34.3787 72.4432 34.5526 72.4761 34.7909C72.5061 35.0089 72.4972 35.2451 72.4494 35.4994C72.4024 35.7527 72.3191 35.9537 72.1994 36.1025C72.0796 36.2503 71.9335 36.3361 71.7611 36.3599C71.5887 36.3837 71.4377 36.3409 71.3081 36.2314C71.1794 36.1218 71.0988 35.9488 71.0662 35.7124ZM71.4876 35.7402C71.5033 35.8545 71.5328 35.9324 71.5761 35.9738C71.6193 36.0152 71.67 36.0319 71.7281 36.0239C71.8056 36.0132 71.8694 35.9679 71.9196 35.8879C71.9868 35.7809 72.0319 35.5822 72.055 35.2918C72.0736 35.0612 72.0738 34.8805 72.0558 34.7497C72.0411 34.6431 72.0116 34.5692 71.9674 34.5279C71.9241 34.4855 71.8733 34.4684 71.8152 34.4764C71.7416 34.4865 71.6811 34.5309 71.6337 34.6095C71.5636 34.7238 71.5158 34.9145 71.4905 35.1816C71.469 35.4126 71.4681 35.5988 71.4876 35.7402ZM72.8108 34.9313L72.838 34.5485C73.1757 34.342 73.4286 34.1211 73.5965 33.8857L73.8508 33.8506L73.6974 36.0558L73.2775 36.1137L73.3833 34.5947C73.3039 34.6629 73.2102 34.7282 73.1023 34.7904C72.9954 34.8526 72.8982 34.8995 72.8108 34.9313ZM74.3792 35.2555C74.3497 35.0414 74.3561 34.8194 74.3984 34.5895C74.4505 34.3088 74.5373 34.0935 74.6587 33.9435C74.7802 33.7935 74.9262 33.7067 75.0967 33.6832C75.2691 33.6594 75.4191 33.7024 75.5468 33.8121C75.6755 33.9217 75.7562 34.0957 75.7891 34.334C75.8191 34.5519 75.8103 34.7881 75.7624 35.0425C75.7154 35.2957 75.6321 35.4968 75.5124 35.6455C75.3927 35.7934 75.2465 35.8792 75.0741 35.9029C74.9017 35.9267 74.7507 35.8839 74.6211 35.7744C74.4924 35.6648 74.4118 35.4918 74.3792 35.2555ZM74.8006 35.2832C74.8164 35.3975 74.8458 35.4754 74.8891 35.5168C74.9323 35.5582 74.983 35.5749 75.0411 35.5669C75.1186 35.5562 75.1824 35.5109 75.2326 35.4309C75.2998 35.324 75.3449 35.1252 75.368 34.8348C75.3866 34.6042 75.3868 34.4235 75.3688 34.2927C75.3541 34.1862 75.3246 34.1123 75.2804 34.071C75.2371 34.0286 75.1864 34.0114 75.1282 34.0194C75.0546 34.0296 74.9941 34.0739 74.9467 34.1525C74.8766 34.2669 74.8288 34.4575 74.8035 34.7246C74.782 34.9556 74.7811 35.1418 74.8006 35.2832ZM76.0357 35.027C76.0062 34.8129 76.0126 34.5909 76.0549 34.361C76.107 34.0804 76.1938 33.865 76.3152 33.715C76.4367 33.565 76.5827 33.4782 76.7532 33.4547C76.9256 33.4309 77.0756 33.4739 77.2033 33.5836C77.332 33.6932 77.4127 33.8672 77.4456 34.1055C77.4756 34.3235 77.4668 34.5596 77.4189 34.814C77.3719 35.0673 77.2886 35.2683 77.1689 35.4171C77.0492 35.5649 76.903 35.6507 76.7306 35.6745C76.5582 35.6982 76.4072 35.6554 76.2776 35.5459C76.1489 35.4363 76.0683 35.2634 76.0357 35.027ZM76.4571 35.0547C76.4729 35.1691 76.5023 35.2469 76.5456 35.2883C76.5888 35.3298 76.6395 35.3465 76.6976 35.3384C76.7751 35.3278 76.8389 35.2824 76.8891 35.2025C76.9563 35.0955 77.0014 34.8967 77.0245 34.6063C77.0431 34.3757 77.0433 34.195 77.0253 34.0643C77.0106 33.9577 76.9811 33.8838 76.937 33.8425C76.8936 33.8001 76.8429 33.7829 76.7847 33.7909C76.7111 33.8011 76.6506 33.8455 76.6032 33.9241C76.5331 34.0384 76.4853 34.2291 76.46 34.4961C76.4385 34.7271 76.4376 34.9133 76.4571 35.0547ZM77.7803 34.2459L77.8075 33.8631C78.1452 33.6566 78.3981 33.4356 78.566 33.2002L78.8203 33.1652L78.6669 35.3704L78.247 35.4283L78.3528 33.9093C78.2734 33.9775 78.1797 34.0427 78.0719 34.105C77.9649 34.1671 77.8678 34.2141 77.7803 34.2459Z" fill="white"/>
<path d="M68.5599 40.8272L68.5871 40.4443C68.9248 40.2378 69.1776 40.0169 69.3456 39.7815L69.5999 39.7464L69.4465 41.9516L69.0265 42.0096L69.1324 40.4905C69.053 40.5588 68.9593 40.624 68.8514 40.6863C68.7445 40.7484 68.6473 40.7954 68.5599 40.8272ZM70.1283 41.1513C70.0987 40.9372 70.1051 40.7152 70.1475 40.4853C70.1996 40.2047 70.2864 39.9893 70.4078 39.8393C70.5293 39.6893 70.6752 39.6025 70.8457 39.579C71.0182 39.5552 71.1682 39.5982 71.2959 39.7079C71.4245 39.8175 71.5053 39.9915 71.5382 40.2298C71.5682 40.4478 71.5593 40.6839 71.5115 40.9383C71.4645 41.1916 71.3812 41.3926 71.2615 41.5414C71.1417 41.6892 70.9956 41.775 70.8232 41.7988C70.6508 41.8225 70.4997 41.7797 70.3701 41.6702C70.2415 41.5606 70.1609 41.3877 70.1283 41.1513ZM70.5497 41.1791C70.5654 41.2934 70.5949 41.3712 70.6382 41.4126C70.6814 41.4541 70.7321 41.4708 70.7902 41.4628C70.8677 41.4521 70.9315 41.4067 70.9817 41.3268C71.0489 41.2198 71.094 41.021 71.1171 40.7306C71.1357 40.5 71.1359 40.3193 71.1179 40.1886C71.1032 40.082 71.0737 40.0081 71.0295 39.9668C70.9862 39.9244 70.9354 39.9072 70.8773 39.9152C70.8037 39.9254 70.7432 39.9698 70.6958 40.0484C70.6257 40.1627 70.5779 40.3534 70.5526 40.6204C70.5311 40.8514 70.5302 41.0376 70.5497 41.1791ZM71.7848 40.9228C71.7552 40.7087 71.7616 40.4867 71.804 40.2568C71.8561 39.9762 71.9429 39.7609 72.0643 39.6108C72.1858 39.4608 72.3318 39.3741 72.5022 39.3505C72.6747 39.3268 72.8247 39.3697 72.9524 39.4795C73.081 39.5891 73.1618 39.763 73.1947 40.0013C73.2247 40.2193 73.2158 40.4554 73.168 40.7098C73.121 40.9631 73.0377 41.1641 72.918 41.3129C72.7982 41.4607 72.6521 41.5465 72.4797 41.5703C72.3073 41.5941 72.1562 41.5512 72.0266 41.4418C71.898 41.3322 71.8174 41.1592 71.7848 40.9228ZM72.2062 40.9506C72.2219 41.0649 72.2514 41.1427 72.2947 41.1842C72.3379 41.2256 72.3886 41.2423 72.4467 41.2343C72.5242 41.2236 72.588 41.1782 72.6382 41.0983C72.7054 40.9913 72.7505 40.7926 72.7736 40.5021C72.7922 40.2715 72.7924 40.0908 72.7744 39.9601C72.7597 39.8535 72.7302 39.7796 72.686 39.7383C72.6427 39.6959 72.5919 39.6787 72.5338 39.6867C72.4602 39.6969 72.3997 39.7413 72.3523 39.8199C72.2822 39.9342 72.2344 40.1249 72.2091 40.3919C72.1876 40.6229 72.1867 40.8091 72.2062 40.9506ZM73.4413 40.6943C73.4118 40.4802 73.4181 40.2582 73.4605 40.0283C73.5126 39.7477 73.5994 39.5324 73.7208 39.3824C73.8423 39.2323 73.9883 39.1456 74.1587 39.1221C74.3312 39.0983 74.4812 39.1412 74.6089 39.251C74.7375 39.3606 74.8183 39.5345 74.8512 39.7728C74.8812 39.9908 74.8723 40.227 74.8245 40.4813C74.7775 40.7346 74.6942 40.9356 74.5745 41.0844C74.4547 41.2322 74.3086 41.318 74.1362 41.3418C73.9638 41.3656 73.8127 41.3227 73.6831 41.2133C73.5545 41.1037 73.4739 40.9307 73.4413 40.6943ZM73.8627 40.7221C73.8784 40.8364 73.9079 40.9143 73.9512 40.9557C73.9944 40.9971 74.0451 41.0138 74.1032 41.0058C74.1807 40.9951 74.2445 40.9498 74.2947 40.8698C74.3619 40.7628 74.407 40.5641 74.4301 40.2736C74.4487 40.043 74.4489 39.8624 74.4309 39.7316C74.4162 39.625 74.3867 39.5511 74.3425 39.5098C74.2992 39.4674 74.2484 39.4502 74.1903 39.4583C74.1167 39.4684 74.0562 39.5128 74.0088 39.5914C73.9387 39.7057 73.8909 39.8964 73.8656 40.1635C73.8441 40.3944 73.8432 40.5807 73.8627 40.7221ZM75.3164 39.0126L75.3628 38.3587C75.9397 38.006 76.3715 37.6287 76.6583 37.2266L77.0926 37.1667L76.8307 40.9331L76.1134 41.0321L76.2943 38.4376C76.1586 38.5541 75.9986 38.6656 75.8143 38.7719C75.6317 38.878 75.4657 38.9582 75.3164 39.0126ZM77.7684 38.6743L77.8148 38.0205C78.3917 37.6678 78.8235 37.2904 79.1103 36.8884L79.5446 36.8285L79.2827 40.5949L78.5654 40.6938L78.7463 38.0994C78.6106 38.2159 78.4506 38.3274 78.2663 38.4337C78.0837 38.5398 77.9178 38.62 77.7684 38.6743ZM80.2205 38.3361L80.2668 37.6823C80.8437 37.3296 81.2755 36.9522 81.5623 36.5502L81.9967 36.4903L81.7347 40.2567L81.0175 40.3556L81.1983 37.7612C81.0626 37.8777 80.9026 37.9891 80.7184 38.0955C80.5357 38.2016 80.3698 38.2818 80.2205 38.3361ZM82.8992 38.8897C82.8487 38.5241 82.8597 38.1449 82.932 37.7522C83.021 37.2729 83.1692 36.9052 83.3766 36.6489C83.5841 36.3927 83.8334 36.2445 84.1246 36.2044C84.4191 36.1637 84.6754 36.2371 84.8934 36.4246C85.1131 36.6117 85.2511 36.9088 85.3072 37.3159C85.3586 37.6881 85.3434 38.0915 85.2617 38.526C85.1814 38.9585 85.0391 39.3019 84.8347 39.556C84.6301 39.8084 84.3806 39.955 84.0861 39.9956C83.7916 40.0362 83.5336 39.9631 83.3123 39.7761C83.0926 39.5889 82.9549 39.2935 82.8992 38.8897ZM83.6189 38.9372C83.6458 39.1324 83.6962 39.2654 83.77 39.3361C83.8439 39.4069 83.9304 39.4354 84.0297 39.4217C84.162 39.4035 84.2711 39.326 84.3568 39.1894C84.4715 39.0067 84.5486 38.6673 84.5881 38.1712C84.6198 37.7774 84.6202 37.4688 84.5894 37.2454C84.5643 37.0634 84.514 36.9372 84.4385 36.8667C84.3644 36.7943 84.2778 36.7649 84.1785 36.7786C84.0528 36.7959 83.9494 36.8717 83.8684 37.006C83.7487 37.2012 83.6672 37.5269 83.6239 37.983C83.5872 38.3776 83.5856 38.6956 83.6189 38.9372ZM85.879 37.5557L85.9253 36.9018C86.5022 36.5491 86.934 36.1718 87.2208 35.7697L87.6552 35.7098L87.3932 39.4762L86.676 39.5752L86.8568 36.9807C86.7211 37.0972 86.5611 37.2087 86.3769 37.315C86.1942 37.4211 86.0283 37.5013 85.879 37.5557Z" fill="white"/>
<path d="M68.9171 44.609C68.8876 44.3949 68.894 44.1729 68.9363 43.943C68.9884 43.6624 69.0752 43.4471 69.1966 43.297C69.3181 43.147 69.4641 43.0603 69.6346 43.0367C69.807 43.013 69.957 43.0559 70.0847 43.1657C70.2133 43.2753 70.2941 43.4492 70.327 43.6875C70.357 43.9055 70.3481 44.1417 70.3003 44.396C70.2533 44.6493 70.17 44.8503 70.0503 44.9991C69.9305 45.1469 69.7844 45.2327 69.612 45.2565C69.4396 45.2803 69.2886 45.2374 69.1589 45.128C69.0303 45.0184 68.9497 44.8454 68.9171 44.609ZM69.3385 44.6368C69.3542 44.7511 69.3837 44.829 69.427 44.8704C69.4702 44.9118 69.5209 44.9285 69.579 44.9205C69.6565 44.9098 69.7203 44.8645 69.7705 44.7845C69.8377 44.6775 69.8828 44.4788 69.9059 44.1883C69.9245 43.9577 69.9247 43.7771 69.9067 43.6463C69.892 43.5397 69.8625 43.4658 69.8183 43.4245C69.775 43.3821 69.7242 43.3649 69.6661 43.373C69.5925 43.3831 69.532 43.4275 69.4846 43.5061C69.4145 43.6204 69.3667 43.8111 69.3414 44.0782C69.3199 44.3091 69.319 44.4953 69.3385 44.6368ZM70.5736 44.3805C70.5441 44.1665 70.5505 43.9445 70.5928 43.7145C70.6449 43.4339 70.7317 43.2186 70.8531 43.0686C70.9746 42.9185 71.1206 42.8318 71.2911 42.8083C71.4635 42.7845 71.6135 42.8275 71.7412 42.9372C71.8698 43.0468 71.9506 43.2207 71.9835 43.459C72.0135 43.677 72.0046 43.9132 71.9568 44.1675C71.9098 44.4208 71.8265 44.6218 71.7068 44.7706C71.587 44.9184 71.4409 45.0042 71.2685 45.028C71.0961 45.0518 70.9451 45.009 70.8154 44.8995C70.6868 44.7899 70.6062 44.6169 70.5736 44.3805ZM70.995 44.4083C71.0107 44.5226 71.0402 44.6005 71.0835 44.6419C71.1267 44.6833 71.1774 44.7 71.2355 44.692C71.313 44.6813 71.3768 44.636 71.427 44.556C71.4942 44.449 71.5393 44.2503 71.5624 43.9599C71.581 43.7293 71.5812 43.5486 71.5632 43.4178C71.5485 43.3112 71.519 43.2373 71.4748 43.196C71.4315 43.1536 71.3807 43.1365 71.3226 43.1445C71.249 43.1546 71.1885 43.199 71.1411 43.2776C71.071 43.3919 71.0232 43.5826 70.9979 43.8497C70.9764 44.0807 70.9755 44.2669 70.995 44.4083ZM72.3182 43.5994L72.3454 43.2166C72.6831 43.0101 72.936 42.7892 73.1039 42.5538L73.3582 42.5187L73.2048 44.7239L72.7849 44.7818L72.8907 43.2628C72.8113 43.331 72.7176 43.3963 72.6097 43.4585C72.5028 43.5207 72.4056 43.5676 72.3182 43.5994ZM73.8866 43.9236C73.8571 43.7095 73.8635 43.4875 73.9058 43.2576C73.9579 42.9769 74.0447 42.7616 74.1661 42.6116C74.2876 42.4616 74.4336 42.3748 74.6041 42.3513C74.7765 42.3275 74.9265 42.3705 75.0542 42.4802C75.1828 42.5898 75.2636 42.7638 75.2965 43.0021C75.3265 43.22 75.3177 43.4562 75.2698 43.7106C75.2228 43.9638 75.1395 44.1649 75.0198 44.3136C74.9001 44.4615 74.7539 44.5473 74.5815 44.571C74.4091 44.5948 74.2581 44.552 74.1285 44.4425C73.9998 44.3329 73.9192 44.1599 73.8866 43.9236ZM74.308 43.9513C74.3237 44.0656 74.3532 44.1435 74.3965 44.1849C74.4397 44.2263 74.4904 44.243 74.5485 44.235C74.626 44.2243 74.6898 44.179 74.74 44.099C74.8072 43.9921 74.8523 43.7933 74.8754 43.5029C74.894 43.2723 74.8942 43.0916 74.8762 42.9608C74.8615 42.8543 74.832 42.7804 74.7878 42.7391C74.7445 42.6967 74.6937 42.6795 74.6356 42.6875C74.562 42.6977 74.5015 42.742 74.4541 42.8206C74.384 42.935 74.3362 43.1256 74.3109 43.3927C74.2894 43.6237 74.2885 43.8099 74.308 43.9513ZM75.7617 42.2418L75.8081 41.588C76.385 41.2353 76.8168 40.8579 77.1036 40.4558L77.5379 40.3959L77.276 44.1624L76.5587 44.2613L76.7396 41.6669C76.6039 41.7834 76.4439 41.8948 76.2596 42.0012C76.077 42.1073 75.911 42.1875 75.7617 42.2418ZM78.2138 41.9036L78.2601 41.2498C78.837 40.8971 79.2688 40.5197 79.5556 40.1176L79.99 40.0577L79.728 43.8242L79.0108 43.9231L79.1916 41.3287C79.0559 41.4452 78.8959 41.5566 78.7117 41.6629C78.529 41.7691 78.3631 41.8493 78.2138 41.9036ZM80.8925 42.4572C80.842 42.0916 80.853 41.7124 80.9252 41.3197C81.0143 40.8404 81.1625 40.4726 81.3699 40.2164C81.5774 39.9602 81.8267 39.812 82.1179 39.7718C82.4124 39.7312 82.6687 39.8046 82.8867 39.992C83.1064 40.1792 83.2444 40.4763 83.3005 40.8833C83.3519 41.2556 83.3367 41.659 83.255 42.0934C83.1747 42.526 83.0324 42.8693 82.828 43.1234C82.6234 43.3759 82.3739 43.5224 82.0794 43.5631C81.7849 43.6037 81.5269 43.5305 81.3056 43.3436C81.0859 43.1564 80.9482 42.8609 80.8925 42.4572ZM81.6122 42.5046C81.6391 42.6999 81.6895 42.8328 81.7633 42.9036C81.8372 42.9743 81.9237 43.0029 82.023 42.9892C82.1553 42.9709 82.2644 42.8935 82.3501 42.7569C82.4648 42.5742 82.5419 42.2348 82.5814 41.7387C82.613 41.3448 82.6135 41.0362 82.5827 40.8129C82.5576 40.6309 82.5073 40.5046 82.4318 40.4341C82.3577 40.3617 82.2711 40.3324 82.1718 40.3461C82.0461 40.3634 81.9427 40.4392 81.8617 40.5734C81.742 40.7687 81.6605 41.0944 81.6172 41.5505C81.5805 41.945 81.5789 42.2631 81.6122 42.5046ZM83.7217 42.067C83.6713 41.7013 83.6822 41.3221 83.7545 40.9294C83.8435 40.4501 83.9917 40.0824 84.1992 39.8262C84.4066 39.5699 84.6559 39.4217 84.9471 39.3816C85.2416 39.341 85.4979 39.4143 85.716 39.6018C85.9357 39.789 86.0736 40.0861 86.1298 40.4931C86.1811 40.8653 86.1659 41.2687 86.0842 41.7032C86.004 42.1357 85.8616 42.4791 85.6573 42.7332C85.4527 42.9857 85.2031 43.1322 84.9086 43.1728C84.6141 43.2134 84.3562 43.1403 84.1348 42.9533C83.9151 42.7661 83.7774 42.4707 83.7217 42.067ZM84.4414 42.1144C84.4684 42.3096 84.5188 42.4426 84.5926 42.5133C84.6664 42.5841 84.753 42.6126 84.8522 42.5989C84.9846 42.5807 85.0936 42.5032 85.1793 42.3667C85.294 42.1839 85.3712 41.8445 85.4106 41.3484C85.4423 40.9546 85.4427 40.646 85.4119 40.4226C85.3868 40.2406 85.3365 40.1144 85.261 40.0439C85.187 39.9715 85.1003 39.9421 85.0011 39.9558C84.8753 39.9732 84.772 40.0489 84.691 40.1832C84.5712 40.3784 84.4897 40.7041 84.4464 41.1603C84.4098 41.5548 84.4081 41.8728 84.4414 42.1144Z" fill="white"/>
<path d="M63.9478 46.1073L63.9749 45.7245C64.3127 45.518 64.5655 45.297 64.7334 45.0616L64.9877 45.0265L64.8343 47.2317L64.4144 47.2897L64.5203 45.7707C64.4408 45.8389 64.3472 45.9041 64.2393 45.9664C64.1324 46.0285 64.0352 46.0755 63.9478 46.1073ZM65.5161 46.4314C65.4866 46.2173 65.493 45.9953 65.5353 45.7654C65.5874 45.4848 65.6742 45.2694 65.7957 45.1194C65.9171 44.9694 66.0631 44.8826 66.2336 44.8591C66.406 44.8353 66.5561 44.8783 66.6838 44.9881C66.8124 45.0976 66.8931 45.2716 66.926 45.5099C66.9561 45.7279 66.9472 45.964 66.8994 46.2184C66.8524 46.4717 66.769 46.6727 66.6494 46.8215C66.5296 46.9693 66.3835 47.0551 66.2111 47.0789C66.0386 47.1027 65.8876 47.0598 65.758 46.9503C65.6294 46.8408 65.5487 46.6678 65.5161 46.4314ZM65.9375 46.4592C65.9533 46.5735 65.9828 46.6513 66.026 46.6928C66.0692 46.7342 66.1199 46.7509 66.178 46.7429C66.2555 46.7322 66.3194 46.6868 66.3695 46.6069C66.4367 46.4999 66.4819 46.3012 66.505 46.0107C66.5235 45.7801 66.5238 45.5994 66.5057 45.4687C66.491 45.3621 66.4616 45.2882 66.4174 45.2469C66.374 45.2045 66.3233 45.1873 66.2652 45.1953C66.1915 45.2055 66.131 45.2499 66.0836 45.3285C66.0135 45.4428 65.9658 45.6335 65.9404 45.9005C65.919 46.1315 65.918 46.3177 65.9375 46.4592ZM67.1726 46.2029C67.1431 45.9888 67.1495 45.7668 67.1918 45.5369C67.2439 45.2563 67.3307 45.041 67.4522 44.8909C67.5736 44.7409 67.7196 44.6542 67.8901 44.6306C68.0625 44.6069 68.2126 44.6498 68.3403 44.7596C68.4689 44.8692 68.5496 45.0431 68.5825 45.2814C68.6126 45.4994 68.6037 45.7355 68.5559 45.9899C68.5089 46.2432 68.4255 46.4442 68.3059 46.593C68.1861 46.7408 68.04 46.8266 67.8676 46.8504C67.6951 46.8742 67.5441 46.8313 67.4145 46.7219C67.2859 46.6123 67.2052 46.4393 67.1726 46.2029ZM67.594 46.2307C67.6098 46.345 67.6393 46.4229 67.6825 46.4643C67.7257 46.5057 67.7764 46.5224 67.8345 46.5144C67.912 46.5037 67.9759 46.4584 68.026 46.3784C68.0932 46.2714 68.1384 46.0727 68.1615 45.7822C68.18 45.5516 68.1803 45.371 68.1622 45.2402C68.1475 45.1336 68.1181 45.0597 68.0739 45.0184C68.0305 44.976 67.9798 44.9588 67.9217 44.9669C67.848 44.977 67.7875 45.0214 67.7401 45.1C67.67 45.2143 67.6223 45.405 67.5969 45.672C67.5755 45.903 67.5745 46.0892 67.594 46.2307ZM68.9173 45.4218L68.9444 45.039C69.2822 44.8325 69.535 44.6116 69.7029 44.3762L69.9572 44.3411L69.8038 46.5463L69.3839 46.6042L69.4898 45.0852C69.4103 45.1534 69.3167 45.2187 69.2088 45.2809C69.1019 45.3431 69.0047 45.39 68.9173 45.4218ZM70.4856 45.746C70.4561 45.5319 70.4625 45.3099 70.5048 45.0799C70.5569 44.7993 70.6437 44.584 70.7652 44.434C70.8866 44.284 71.0326 44.1972 71.2031 44.1737C71.3755 44.1499 71.5256 44.1929 71.6533 44.3026C71.7819 44.4122 71.8627 44.5862 71.8955 44.8245C71.9256 45.0424 71.9167 45.2786 71.8689 45.533C71.8219 45.7862 71.7385 45.9872 71.6189 46.136C71.4991 46.2838 71.353 46.3696 71.1806 46.3934C71.0081 46.4172 70.8571 46.3744 70.7275 46.2649C70.5989 46.1553 70.5182 45.9823 70.4856 45.746ZM70.907 45.7737C70.9228 45.888 70.9523 45.9659 70.9955 46.0073C71.0387 46.0487 71.0894 46.0654 71.1475 46.0574C71.225 46.0467 71.2889 46.0014 71.339 45.9214C71.4062 45.8144 71.4514 45.6157 71.4745 45.3253C71.493 45.0947 71.4933 44.914 71.4752 44.7832C71.4605 44.6767 71.4311 44.6027 71.3869 44.5614C71.3435 44.5191 71.2928 44.5019 71.2347 44.5099C71.1611 44.52 71.1005 44.5644 71.0531 44.643C70.983 44.7573 70.9353 44.948 70.9099 45.2151C70.8885 45.4461 70.8875 45.6323 70.907 45.7737ZM72.1421 45.5175C72.1126 45.3034 72.119 45.0814 72.1613 44.8515C72.2134 44.5708 72.3002 44.3555 72.4217 44.2055C72.5431 44.0555 72.6891 43.9687 72.8596 43.9452C73.032 43.9214 73.1821 43.9644 73.3098 44.0741C73.4384 44.1837 73.5192 44.3577 73.552 44.596C73.5821 44.8139 73.5732 45.0501 73.5254 45.3045C73.4784 45.5577 73.395 45.7588 73.2754 45.9075C73.1556 46.0554 73.0095 46.1412 72.8371 46.1649C72.6646 46.1887 72.5136 46.1459 72.384 46.0364C72.2554 45.9268 72.1747 45.7538 72.1421 45.5175ZM72.5635 45.5452C72.5793 45.6595 72.6088 45.7374 72.652 45.7788C72.6952 45.8202 72.7459 45.8369 72.804 45.8289C72.8815 45.8182 72.9454 45.7729 72.9955 45.6929C73.0627 45.5859 73.1079 45.3872 73.131 45.0968C73.1495 44.8662 73.1498 44.6855 73.1317 44.5547C73.117 44.4482 73.0876 44.3743 73.0434 44.333C73 44.2906 72.9493 44.2734 72.8912 44.2814C72.8176 44.2916 72.757 44.3359 72.7096 44.4145C72.6395 44.5288 72.5918 44.7195 72.5664 44.9866C72.545 45.2176 72.544 45.4038 72.5635 45.5452ZM73.8868 44.7364L73.9139 44.3536C74.2517 44.1471 74.5045 43.9261 74.6724 43.6907L74.9267 43.6556L74.7734 45.8608L74.3534 45.9188L74.4593 44.3998C74.3799 44.468 74.2862 44.5332 74.1783 44.5955C74.0714 44.6576 73.9742 44.7046 73.8868 44.7364Z" fill="white"/>
<path d="M64.6664 51.3176L64.6935 50.9348C65.0313 50.7283 65.2841 50.5074 65.452 50.272L65.7063 50.2369L65.5529 52.4421L65.133 52.5L65.2389 50.981C65.1594 51.0492 65.0658 51.1145 64.9579 51.1767C64.8509 51.2389 64.7538 51.2858 64.6664 51.3176ZM66.2347 51.6418C66.2052 51.4277 66.2116 51.2057 66.2539 50.9758C66.306 50.6951 66.3928 50.4798 66.5143 50.3298C66.6357 50.1798 66.7817 50.093 66.9522 50.0695C67.1246 50.0457 67.2747 50.0887 67.4023 50.1984C67.531 50.308 67.6117 50.482 67.6446 50.7203C67.6747 50.9382 67.6658 51.1744 67.6179 51.4288C67.5709 51.682 67.4876 51.8831 67.368 52.0318C67.2482 52.1797 67.1021 52.2655 66.9296 52.2892C66.7572 52.313 66.6062 52.2702 66.4766 52.1607C66.3479 52.0511 66.2673 51.8781 66.2347 51.6418ZM66.6561 51.6695C66.6719 51.7838 66.7014 51.8617 66.7446 51.9031C66.7878 51.9445 66.8385 51.9612 66.8966 51.9532C66.9741 51.9425 67.038 51.8972 67.0881 51.8172C67.1553 51.7102 67.2004 51.5115 67.2236 51.2211C67.2421 50.9905 67.2424 50.8098 67.2243 50.679C67.2096 50.5725 67.1802 50.4986 67.136 50.4573C67.0926 50.4149 67.0419 50.3977 66.9838 50.4057C66.9101 50.4159 66.8496 50.4602 66.8022 50.5388C66.7321 50.6531 66.6844 50.8438 66.659 51.1109C66.6376 51.3419 66.6366 51.5281 66.6561 51.6695ZM67.8912 51.4133C67.8617 51.1992 67.8681 50.9772 67.9104 50.7473C67.9625 50.4667 68.0493 50.2513 68.1708 50.1013C68.2922 49.9513 68.4382 49.8645 68.6087 49.841C68.7811 49.8172 68.9312 49.8602 69.0588 49.9699C69.1875 50.0795 69.2682 50.2535 69.3011 50.4918C69.3312 50.7097 69.3223 50.9459 69.2744 51.2003C69.2274 51.4536 69.1441 51.6546 69.0245 51.8034C68.9047 51.9512 68.7586 52.037 68.5861 52.0608C68.4137 52.0845 68.2627 52.0417 68.1331 51.9322C68.0044 51.8226 67.9238 51.6497 67.8912 51.4133ZM68.3126 51.441C68.3284 51.5554 68.3579 51.6332 68.4011 51.6746C68.4443 51.7161 68.495 51.7328 68.5531 51.7247C68.6306 51.7141 68.6945 51.6687 68.7446 51.5888C68.8118 51.4818 68.8569 51.283 68.8801 50.9926C68.8986 50.762 68.8989 50.5813 68.8808 50.4506C68.8661 50.344 68.8367 50.2701 68.7925 50.2288C68.7491 50.1864 68.6984 50.1692 68.6403 50.1772C68.5666 50.1874 68.5061 50.2318 68.4587 50.3104C68.3886 50.4247 68.3409 50.6154 68.3155 50.8824C68.2941 51.1134 68.2931 51.2996 68.3126 51.441ZM69.5477 51.1848C69.5182 50.9707 69.5246 50.7487 69.5669 50.5188C69.619 50.2382 69.7058 50.0228 69.8273 49.8728C69.9487 49.7228 70.0947 49.636 70.2652 49.6125C70.4376 49.5887 70.5877 49.6317 70.7153 49.7415C70.844 49.8511 70.9247 50.025 70.9576 50.2633C70.9877 50.4813 70.9788 50.7174 70.9309 50.9718C70.8839 51.2251 70.8006 51.4261 70.681 51.5749C70.5612 51.7227 70.4151 51.8085 70.2426 51.8323C70.0702 51.8561 69.9192 51.8132 69.7896 51.7038C69.6609 51.5942 69.5803 51.4212 69.5477 51.1848ZM69.9691 51.2126C69.9849 51.3269 70.0144 51.4047 70.0576 51.4462C70.1008 51.4876 70.1515 51.5043 70.2096 51.4963C70.2871 51.4856 70.351 51.4402 70.4011 51.3603C70.4683 51.2533 70.5134 51.0546 70.5366 50.7641C70.5551 50.5335 70.5554 50.3528 70.5373 50.2221C70.5226 50.1155 70.4932 50.0416 70.449 50.0003C70.4056 49.9579 70.3549 49.9407 70.2968 49.9487C70.2231 49.9589 70.1626 50.0033 70.1152 50.0819C70.0451 50.1962 69.9974 50.3869 69.972 50.6539C69.9506 50.8849 69.9496 51.0711 69.9691 51.2126ZM71.4229 49.503L71.4693 48.8492C72.0461 48.4965 72.4779 48.1191 72.7648 47.7171L73.1991 47.6572L72.9371 51.4236L72.2199 51.5225L72.4007 48.9281C72.265 49.0446 72.1051 49.156 71.9208 49.2624C71.7381 49.3685 71.5722 49.4487 71.4229 49.503ZM73.8749 49.1648L73.9213 48.511C74.4981 48.1583 74.93 47.7809 75.2168 47.3789L75.6511 47.319L75.3891 51.0854L74.6719 51.1843L74.8527 48.5899C74.717 48.7064 74.5571 48.8178 74.3728 48.9242C74.1902 49.0303 74.0242 49.1105 73.8749 49.1648ZM76.3269 48.8266L76.3733 48.1728C76.9502 47.8201 77.382 47.4427 77.6688 47.0407L78.1031 46.9808L77.8411 50.7472L77.1239 50.8461L77.3047 48.2517C77.1691 48.3682 77.0091 48.4796 76.8248 48.586C76.6422 48.6921 76.4762 48.7723 76.3269 48.8266ZM79.0056 49.3802C78.9552 49.0146 78.9661 48.6354 79.0384 48.2427C79.1274 47.7634 79.2756 47.3956 79.4831 47.1394C79.6905 46.8832 79.9398 46.735 80.231 46.6948C80.5255 46.6542 80.7818 46.7276 80.9999 46.915C81.2196 47.1022 81.3575 47.3993 81.4137 47.8063C81.465 48.1786 81.4498 48.582 81.3681 49.0164C81.2879 49.449 81.1455 49.7923 80.9412 50.0465C80.7366 50.2989 80.487 50.4455 80.1925 50.4861C79.898 50.5267 79.6401 50.4535 79.4187 50.2666C79.199 50.0794 79.0613 49.7839 79.0056 49.3802ZM79.7253 49.4276C79.7523 49.6229 79.8027 49.7559 79.8765 49.8266C79.9503 49.8974 80.0369 49.9259 80.1361 49.9122C80.2685 49.8939 80.3775 49.8165 80.4632 49.6799C80.5779 49.4972 80.6551 49.1578 80.6945 48.6617C80.7262 48.2679 80.7266 47.9593 80.6958 47.7359C80.6707 47.5539 80.6204 47.4277 80.5449 47.3571C80.4709 47.2847 80.3842 47.2554 80.2849 47.2691C80.1592 47.2864 80.0559 47.3622 79.9749 47.4965C79.8551 47.6917 79.7736 48.0174 79.7303 48.4735C79.6937 48.868 79.692 49.1861 79.7253 49.4276ZM81.9854 48.0461L82.0318 47.3923C82.6087 47.0396 83.0405 46.6622 83.3273 46.2602L83.7616 46.2003L83.4997 49.9667L82.7824 50.0656L82.9632 47.4712C82.8276 47.5877 82.6676 47.6991 82.4833 47.8055C82.3007 47.9116 82.1347 47.9918 81.9854 48.0461Z" fill="white"/>
<path d="M65.0235 55.0995C64.994 54.8854 65.0004 54.6634 65.0427 54.4335C65.0948 54.1529 65.1816 53.9375 65.3031 53.7875C65.4245 53.6375 65.5705 53.5507 65.741 53.5272C65.9134 53.5034 66.0635 53.5464 66.1911 53.6561C66.3198 53.7657 66.4005 53.9397 66.4334 54.178C66.4635 54.396 66.4546 54.6321 66.4068 54.8865C66.3598 55.1398 66.2764 55.3408 66.1568 55.4896C66.037 55.6374 65.8909 55.7232 65.7185 55.747C65.546 55.7708 65.395 55.7279 65.2654 55.6184C65.1368 55.5089 65.0561 55.3359 65.0235 55.0995ZM65.4449 55.1273C65.4607 55.2416 65.4902 55.3194 65.5334 55.3609C65.5766 55.4023 65.6273 55.419 65.6854 55.411C65.7629 55.4003 65.8268 55.3549 65.8769 55.275C65.9441 55.168 65.9893 54.9693 66.0124 54.6788C66.0309 54.4482 66.0312 54.2675 66.0131 54.1368C65.9984 54.0302 65.969 53.9563 65.9248 53.915C65.8814 53.8726 65.8307 53.8554 65.7726 53.8634C65.6989 53.8736 65.6384 53.918 65.591 53.9966C65.5209 54.1109 65.4732 54.3016 65.4478 54.5686C65.4264 54.7996 65.4254 54.9858 65.4449 55.1273ZM66.68 54.871C66.6505 54.6569 66.6569 54.4349 66.6992 54.205C66.7513 53.9244 66.8381 53.7091 66.9596 53.559C67.081 53.409 67.227 53.3223 67.3975 53.2987C67.5699 53.275 67.72 53.3179 67.8477 53.4277C67.9763 53.5373 68.057 53.7112 68.0899 53.9495C68.12 54.1675 68.1111 54.4036 68.0633 54.658C68.0163 54.9113 67.9329 55.1123 67.8133 55.2611C67.6935 55.4089 67.5474 55.4947 67.375 55.5185C67.2025 55.5423 67.0515 55.4994 66.9219 55.39C66.7933 55.2804 66.7126 55.1074 66.68 54.871ZM67.1014 54.8988C67.1172 55.0131 67.1467 55.0909 67.1899 55.1324C67.2331 55.1738 67.2838 55.1905 67.3419 55.1825C67.4194 55.1718 67.4833 55.1265 67.5334 55.0465C67.6006 54.9395 67.6458 54.7408 67.6689 54.4503C67.6874 54.2197 67.6877 54.0391 67.6696 53.9083C67.6549 53.8017 67.6255 53.7278 67.5813 53.6865C67.5379 53.6441 67.4872 53.6269 67.4291 53.635C67.3554 53.6451 67.2949 53.6895 67.2475 53.7681C67.1774 53.8824 67.1297 54.0731 67.1043 54.3401C67.0829 54.5711 67.0819 54.7573 67.1014 54.8988ZM68.4247 54.0899L68.4518 53.7071C68.7896 53.5006 69.0424 53.2797 69.2103 53.0443L69.4646 53.0092L69.3112 55.2144L68.8913 55.2723L68.9972 53.7533C68.9177 53.8215 68.8241 53.8868 68.7162 53.949C68.6093 54.0112 68.5121 54.0581 68.4247 54.0899ZM69.993 54.4141C69.9635 54.2 69.9699 53.978 70.0122 53.748C70.0643 53.4674 70.1511 53.2521 70.2726 53.1021C70.394 52.9521 70.54 52.8653 70.7105 52.8418C70.8829 52.818 71.033 52.861 71.1607 52.9707C71.2893 53.0803 71.37 53.2543 71.4029 53.4926C71.433 53.7105 71.4241 53.9467 71.3763 54.2011C71.3293 54.4543 71.2459 54.6553 71.1263 54.8041C71.0065 54.9519 70.8604 55.0377 70.688 55.0615C70.5155 55.0853 70.3645 55.0425 70.2349 54.933C70.1063 54.8234 70.0256 54.6504 69.993 54.4141ZM70.4144 54.4418C70.4302 54.5561 70.4597 54.634 70.5029 54.6754C70.5461 54.7168 70.5968 54.7335 70.6549 54.7255C70.7324 54.7148 70.7963 54.6695 70.8464 54.5895C70.9136 54.4825 70.9588 54.2838 70.9819 53.9934C71.0004 53.7628 71.0007 53.5821 70.9826 53.4513C70.9679 53.3448 70.9385 53.2708 70.8943 53.2295C70.8509 53.1872 70.8002 53.17 70.7421 53.178C70.6684 53.1881 70.6079 53.2325 70.5605 53.3111C70.4904 53.4254 70.4427 53.6161 70.4173 53.8832C70.3959 54.1142 70.3949 54.3004 70.4144 54.4418ZM71.8682 52.7323L71.9146 52.0785C72.4914 51.7258 72.9233 51.3484 73.2101 50.9463L73.6444 50.8864L73.3824 54.6529L72.6652 54.7518L72.846 52.1574C72.7103 52.2739 72.5504 52.3853 72.3661 52.4916C72.1835 52.5978 72.0175 52.678 71.8682 52.7323ZM74.3202 52.3941L74.3666 51.7402C74.9434 51.3875 75.3753 51.0102 75.6621 50.6081L76.0964 50.5482L75.8344 54.3146L75.1172 54.4136L75.298 51.8192C75.1624 51.9357 75.0024 52.0471 74.8181 52.1534C74.6355 52.2595 74.4695 52.3398 74.3202 52.3941ZM76.9989 52.9477C76.9485 52.582 76.9594 52.2029 77.0317 51.8102C77.1207 51.3309 77.2689 50.9631 77.4764 50.7069C77.6838 50.4507 77.9331 50.3025 78.2243 50.2623C78.5188 50.2217 78.7751 50.2951 78.9932 50.4825C79.2129 50.6697 79.3508 50.9668 79.4069 51.3738C79.4583 51.7461 79.4431 52.1494 79.3614 52.5839C79.2811 53.0165 79.1388 53.3598 78.9345 53.6139C78.7299 53.8664 78.4803 54.0129 78.1858 54.0535C77.8913 54.0942 77.6334 54.021 77.412 53.834C77.1923 53.6468 77.0546 53.3514 76.9989 52.9477ZM77.7186 52.9951C77.7456 53.1903 77.7959 53.3233 77.8698 53.3941C77.9436 53.4648 78.0301 53.4933 78.1294 53.4796C78.2618 53.4614 78.3708 53.384 78.4565 53.2474C78.5712 53.0646 78.6483 52.7252 78.6878 52.2292C78.7195 51.8353 78.7199 51.5267 78.6891 51.3034C78.664 51.1214 78.6137 50.9951 78.5382 50.9246C78.4642 50.8522 78.3775 50.8228 78.2782 50.8365C78.1525 50.8539 78.0491 50.9297 77.9682 51.0639C77.8484 51.2591 77.7669 51.5848 77.7236 52.041C77.687 52.4355 77.6853 52.7535 77.7186 52.9951ZM79.8282 52.5574C79.7777 52.1918 79.7887 51.8126 79.8609 51.4199C79.9499 50.9406 80.0982 50.5729 80.3056 50.3166C80.5131 50.0604 80.7624 49.9122 81.0536 49.8721C81.3481 49.8314 81.6044 49.9048 81.8224 50.0922C82.0421 50.2794 82.1801 50.5765 82.2362 50.9836C82.2875 51.3558 82.2724 51.7592 82.1907 52.1936C82.1104 52.6262 81.9681 52.9696 81.7637 53.2237C81.5591 53.4761 81.3096 53.6227 81.0151 53.6633C80.7206 53.7039 80.4626 53.6308 80.2413 53.4438C80.0216 53.2566 79.8839 52.9611 79.8282 52.5574ZM80.5479 52.6049C80.5748 52.8001 80.6252 52.9331 80.699 53.0038C80.7729 53.0746 80.8594 53.1031 80.9587 53.0894C81.091 53.0711 81.2001 52.9937 81.2858 52.8571C81.4005 52.6744 81.4776 52.335 81.5171 51.8389C81.5487 51.4451 81.5492 51.1365 81.5184 50.9131C81.4933 50.7311 81.443 50.6049 81.3675 50.5343C81.2934 50.4619 81.2068 50.4326 81.1075 50.4463C80.9818 50.4636 80.8784 50.5394 80.7974 50.6737C80.6777 50.8689 80.5962 51.1946 80.5529 51.6507C80.5162 52.0453 80.5146 52.3633 80.5479 52.6049Z" fill="white"/>
</g>
<path d="M80.3605 33.7898C78.5715 32.725 76.507 32.2147 74.428 32.3234C72.3491 32.4322 70.349 33.155 68.6809 34.4005C67.0128 35.6461 65.7515 37.3583 65.0567 39.3208C64.3618 41.2832 64.2646 43.4076 64.7772 45.4253C65.2899 47.4431 66.3895 49.2634 67.9368 50.6561C69.4842 52.0488 71.4098 52.9514 73.4701 53.2496C75.5305 53.5478 77.633 53.2282 79.5117 52.3313C81.3904 51.4345 82.961 50.0006 84.0246 48.211C85.4511 45.8127 85.8664 42.946 85.1793 40.2415C84.4921 37.537 82.7587 35.2163 80.3605 33.7898ZM70.2824 50.7406C68.7185 49.8111 67.4653 48.4388 66.6815 46.7971C65.8976 45.1554 65.6181 43.3181 65.8785 41.5176C66.1389 39.7171 66.9273 38.0342 68.1442 36.6818C69.361 35.3295 70.9515 34.3683 72.7147 33.9199C74.4778 33.4716 76.3343 33.5561 78.0493 34.1629C79.7644 34.7697 81.261 35.8715 82.3498 37.3289C83.4387 38.7863 84.0709 40.5338 84.1665 42.3506C84.2621 44.1673 83.8168 45.9716 82.887 47.5352C81.6378 49.6289 79.6084 51.1409 77.2449 51.7391C74.8814 52.3372 72.3771 51.9725 70.2824 50.7251V50.7406Z" fill="#263238"/>
<path d="M70.4099 51.6054L69.9263 51.3171L69.4458 51.0288C69.4458 51.0288 65.1554 56.7731 63.996 58.7199C62.8366 60.6667 62.2197 62.4182 63.0381 62.9049C63.8565 63.3916 65.0965 62.0121 66.2559 60.0653C67.4153 58.1185 70.4099 51.6054 70.4099 51.6054Z" fill="#263238"/>
<path d="M105.139 120.047C105.104 120.047 105.07 120.036 105.042 120.014C105.015 119.992 104.995 119.961 104.988 119.926C101.457 103.23 108.295 85.628 116.901 79.6698C116.935 79.6471 116.976 79.6386 117.016 79.6461C117.056 79.6537 117.092 79.6766 117.115 79.7101C117.138 79.744 117.147 79.7857 117.14 79.8262C117.133 79.8667 117.111 79.9029 117.078 79.9271C108.553 85.8171 101.785 103.276 105.298 119.858C105.302 119.878 105.303 119.898 105.299 119.918C105.296 119.938 105.288 119.957 105.277 119.975C105.266 119.992 105.252 120.006 105.235 120.018C105.218 120.029 105.2 120.037 105.18 120.041L105.139 120.047Z" fill="#263238"/>
<path d="M105.139 120.047C105.104 120.047 105.07 120.036 105.042 120.014C105.015 119.992 104.995 119.961 104.988 119.926C101.457 103.23 108.295 85.628 116.901 79.6698C116.935 79.6471 116.976 79.6386 117.016 79.6461C117.056 79.6537 117.092 79.6766 117.115 79.7101C117.138 79.744 117.147 79.7857 117.14 79.8262C117.133 79.8667 117.111 79.9029 117.078 79.9271C108.553 85.8171 101.785 103.276 105.298 119.858C105.302 119.878 105.303 119.898 105.299 119.918C105.296 119.938 105.288 119.957 105.277 119.975C105.266 119.992 105.252 120.006 105.235 120.018C105.218 120.029 105.2 120.037 105.18 120.041L105.139 120.047Z" fill="#263238"/>
<path d="M115.94 80.5502C118.774 77.3603 123.78 74.5517 126.586 75.6274C125.591 78.4639 120.206 80.4603 115.94 80.5502Z" fill="#263238"/>
<path d="M113.751 82.6458C110.341 80.0914 107.12 75.3329 107.96 72.4468C110.868 73.2032 113.305 78.405 113.751 82.6458Z" fill="#263238"/>
<path d="M111.11 86.0371C115.36 86.3843 120.618 88.7 121.443 91.5892C118.575 92.4975 113.745 89.3913 111.11 86.0371Z" fill="#263238"/>
<path d="M108.693 90.4083C104.746 88.7839 100.444 84.9802 100.54 81.9763C103.54 81.9825 107.202 86.4093 108.693 90.4083Z" fill="#263238"/>
<path d="M106.773 95.1698C110.977 94.4444 116.644 95.3744 118.163 97.9598C115.63 99.5625 110.165 97.7614 106.773 95.1698Z" fill="#263238"/>
<path d="M104.383 107.117C107.483 106.572 111.637 107.241 112.753 109.145C110.89 110.323 106.878 109.011 104.383 107.117Z" fill="#263238"/>
<path d="M102.043 121.284H102.018C101.998 121.281 101.979 121.274 101.961 121.263C101.944 121.252 101.929 121.238 101.917 121.221C101.905 121.204 101.897 121.185 101.893 121.165C101.888 121.145 101.888 121.125 101.891 121.104C103.705 111.033 99.3027 100.626 94.0544 97.2344C94.0202 97.2111 93.9965 97.1754 93.9884 97.1348C93.9803 97.0942 93.9884 97.0521 94.011 97.0174C94.0337 96.9835 94.069 96.9598 94.109 96.9517C94.1491 96.9436 94.1908 96.9516 94.2249 96.974C99.5569 100.427 104.03 110.974 102.198 121.154C102.192 121.19 102.173 121.223 102.144 121.247C102.116 121.271 102.08 121.284 102.043 121.284Z" fill="#263238"/>
<path d="M102.043 121.284H102.018C101.998 121.281 101.979 121.274 101.961 121.263C101.944 121.252 101.929 121.238 101.917 121.221C101.905 121.204 101.897 121.185 101.893 121.165C101.888 121.145 101.888 121.125 101.891 121.104C103.705 111.033 99.3027 100.626 94.0544 97.2344C94.0202 97.2111 93.9965 97.1754 93.9884 97.1348C93.9803 97.0942 93.9884 97.0521 94.011 97.0174C94.0337 96.9835 94.069 96.9598 94.109 96.9517C94.1491 96.9436 94.1908 96.9516 94.2249 96.974C99.5569 100.427 104.03 110.974 102.198 121.154C102.192 121.19 102.173 121.223 102.144 121.247C102.116 121.271 102.08 121.284 102.043 121.284Z" fill="#263238"/>
<path d="M94.7854 97.5258C93.0153 95.6472 89.9339 94.0383 88.2568 94.7358C88.9109 96.4408 92.2062 97.5475 94.7854 97.5258Z" fill="#263238"/>
<path d="M96.1494 98.7533C98.1706 97.1444 100.028 94.2056 99.4664 92.4758C97.7211 92.9997 96.3416 96.1772 96.1494 98.7533Z" fill="#263238"/>
<path d="M97.8115 100.75C95.2447 101.038 92.1075 102.535 91.6611 104.299C93.4126 104.801 96.277 102.833 97.8115 100.75Z" fill="#263238"/>
<path d="M99.3555 103.354C101.711 102.3 104.244 99.919 104.133 98.1055C102.3 98.1644 100.183 100.908 99.3555 103.354Z" fill="#263238"/>
<path d="M100.601 106.2C98.0438 105.84 94.6338 106.51 93.7627 108.103C95.3344 109.021 98.5987 107.83 100.601 106.2Z" fill="#263238"/>
<path d="M111.11 117.567H97.4824V119.012H111.11V117.567Z" fill="#42A7C3"/>
<path d="M110.131 116.123H95.7529V117.567H110.131V116.123Z" fill="#42A7C3"/>
<path d="M112.18 119.009H98.3789V120.454H112.18V119.009Z" fill="#42A7C3"/>
<path d="M111.659 127.673H96.9805V129.118H111.659V127.673Z" fill="#42A7C3"/>
<path d="M111.299 120.453H95.9043V121.898H111.299V120.453Z" fill="#42A7C3"/>
<path d="M114.84 120.453H113.296V121.898H114.84V120.453Z" fill="#42A7C3"/>
<path d="M112.341 121.898H105.837V123.343H112.341V121.898Z" fill="#42A7C3"/>
<path d="M97.7149 126.229H105.908V124.784H97.7149V126.229Z" fill="#42A7C3"/>
<path d="M106.826 126.229H111.142V124.784H106.826V126.229Z" fill="#42A7C3"/>
<path d="M100.514 126.229H96.0068V127.673H100.514V126.229Z" fill="#42A7C3"/>
<path d="M105.18 126.229H103.091V127.673H105.18V126.229Z" fill="#42A7C3"/>
<path d="M113.11 126.229H108.758V127.673H113.11V126.229Z" fill="#42A7C3"/>
<path d="M112.307 129.118H107.954V130.563H112.307V129.118Z" fill="#42A7C3"/>
<path d="M104.832 121.898H98.0898V123.343H104.832V121.898Z" fill="#42A7C3"/>
<path d="M107.171 129.118H97.7188V130.563H107.171V129.118Z" fill="#42A7C3"/>
<path d="M111.724 123.343H96.7822V124.787H111.724V123.343Z" fill="#42A7C3"/>
</g>
<defs>
<clipPath id="clip0_76_2147">
<rect width="155" height="155" fill="white"/>
</clipPath>
</defs>
</svg>
