<svg width="161" height="160" viewBox="0 0 161 160" fill="none" xmlns="http://www.w3.org/2000/svg">
<circle cx="80.2803" cy="80" r="80" fill="#23A26D" fill-opacity="0.12"/>
<path d="M78.8531 41.905C57.8626 41.905 40.7578 59.0098 40.7578 80.0003C40.7578 100.991 57.8626 118.096 78.8531 118.096C99.8435 118.096 116.948 100.991 116.948 80.0003C116.948 59.0098 99.8435 41.905 78.8531 41.905ZM97.0626 71.2384L75.4626 92.8384C74.9292 93.3717 74.2054 93.6765 73.4435 93.6765C72.6816 93.6765 71.9578 93.3717 71.4245 92.8384L60.6435 82.0574C59.5388 80.9526 59.5388 79.1241 60.6435 78.0193C61.7483 76.9146 63.5769 76.9146 64.6816 78.0193L73.4435 86.7812L93.0245 67.2003C94.1292 66.0955 95.9578 66.0955 97.0626 67.2003C98.1673 68.305 98.1673 70.0955 97.0626 71.2384Z" fill="#23A26D"/>
</svg>
