<svg width="32" height="32" viewBox="0 0 32 32" fill="none" xmlns="http://www.w3.org/2000/svg">
<path opacity="0.5" fill-rule="evenodd" clip-rule="evenodd" d="M0 16C0 7.16344 7.16344 0 16 0C24.8366 0 32 7.16344 32 16C32 24.8366 24.8366 32 16 32C7.16344 32 0 24.8366 0 16Z" fill="#D9D9D9"/>
<g clip-path="url(#clip0_344_365)">
<path d="M24.1886 7.32048L7.67273 13.8048C7.35853 13.9282 7.34711 14.3687 7.65448 14.5081L11.3057 16.165C11.4046 16.2099 11.4797 16.2947 11.5122 16.3983L13.0787 21.3836C13.1578 21.6352 13.4622 21.7329 13.6729 21.5741L16.3996 19.5198C16.5298 19.4217 16.7079 19.4171 16.843 19.5083L21.4161 22.5934C21.6442 22.7473 21.9552 22.6167 22.0052 22.3462L24.7038 7.74538C24.7582 7.45069 24.4676 7.21096 24.1886 7.32048ZM14.1804 16.8721L13.6877 19.6729L12.4159 15.6626L21.1354 10.2506L14.1804 16.8721ZM9.92288 17.6035C9.78226 17.4629 9.55445 17.4629 9.4138 17.6035L7.39672 19.6204C7.25611 19.7611 7.25611 19.9889 7.39672 20.1295C7.53734 20.2701 7.76515 20.2701 7.9058 20.1295L9.92288 18.1126C10.0635 17.9719 10.0635 17.7441 9.92288 17.6035ZM10.9581 21.9836L8.94116 24.0005C8.80051 24.1412 8.80051 24.369 8.94116 24.5096C9.08177 24.6502 9.30958 24.6502 9.4502 24.5096L11.4671 22.4927C11.6077 22.3521 11.6077 22.1243 11.4671 21.9836C11.3265 21.843 11.0987 21.843 10.9581 21.9836Z" fill="white"/>
<path d="M16.8242 21.9839L14.8071 24.0008C14.6665 24.1414 14.6665 24.3692 14.8071 24.5099C14.9478 24.6505 15.1756 24.6505 15.3162 24.5099L17.3333 22.4929C17.4739 22.3523 17.4739 22.1245 17.3333 21.9839C17.1927 21.8433 16.9648 21.8433 16.8242 21.9839Z" fill="white"/>
<path d="M24.1859 7.32096L7.67005 13.8053C7.35584 13.9287 7.34443 14.3692 7.6518 14.5086L11.303 16.1655C11.4019 16.2104 11.477 16.2952 11.5095 16.3988L13.076 21.384C13.1552 21.6357 13.4595 21.7333 13.6702 21.5746L16.3969 19.5203C16.5271 19.4222 16.7052 19.4176 16.8403 19.5088L21.4134 22.5939C21.6415 22.7478 21.9525 22.6172 22.0025 22.3467L24.7011 7.74587C24.7555 7.45118 24.4649 7.21145 24.1859 7.32096ZM14.1777 16.8726L13.685 19.6734L12.4132 15.6631L21.1328 10.2511L14.1777 16.8726ZM9.9202 17.604C9.77958 17.4634 9.55177 17.4634 9.41112 17.604L7.39404 19.6209C7.25342 19.7616 7.25342 19.9894 7.39404 20.13C7.53465 20.2706 7.76246 20.2706 7.90312 20.13L9.9202 18.113C10.0608 17.9724 10.0608 17.7446 9.9202 17.604ZM10.9554 21.9841L8.93848 24.001C8.79782 24.1416 8.79782 24.3695 8.93848 24.5101C9.07909 24.6507 9.3069 24.6507 9.44752 24.5101L11.4644 22.4932C11.6051 22.3525 11.6051 22.1247 11.4644 21.9841C11.3238 21.8435 11.096 21.8435 10.9554 21.9841Z" fill="white"/>
<path d="M16.8213 21.9844L14.8042 24.0013C14.6636 24.1419 14.6636 24.3697 14.8042 24.5103C14.9448 24.651 15.1726 24.651 15.3133 24.5103L17.3304 22.4934C17.471 22.3528 17.471 22.125 17.3304 21.9844C17.1897 21.8438 16.9619 21.8438 16.8213 21.9844Z" fill="white"/>
</g>
<defs>
<clipPath id="clip0_344_365">
<rect width="18" height="18" fill="white" transform="translate(7 6.95459)"/>
</clipPath>
</defs>
</svg>
