<svg width="44" height="45" viewBox="0 0 44 45" fill="none" xmlns="http://www.w3.org/2000/svg">
<path d="M12.3382 36.6167C13.8415 35.0033 16.1332 35.1317 17.4532 36.8917L19.3048 39.3667C20.7898 41.3283 23.1915 41.3283 24.6765 39.3667L26.5282 36.8917C27.8482 35.1317 30.1398 35.0033 31.6432 36.6167C34.9065 40.1 37.5648 38.945 37.5648 34.0683V13.4067C37.5832 6.01832 35.8598 4.16666 28.9298 4.16666H15.0698C8.13984 4.16666 6.4165 6.01832 6.4165 13.4067V34.05C6.4165 38.945 9.09317 40.0817 12.3382 36.6167Z" stroke="white" stroke-width="2.75" stroke-linecap="round" stroke-linejoin="round"/>
<path d="M14.8426 20.6667H14.8591" stroke="white" stroke-width="3.66667" stroke-linecap="round" stroke-linejoin="round"/>
<path d="M19.9805 20.6667H30.0638" stroke="white" stroke-width="2.75" stroke-linecap="round" stroke-linejoin="round"/>
<path d="M14.8426 13.3333H14.8591" stroke="white" stroke-width="3.66667" stroke-linecap="round" stroke-linejoin="round"/>
<path d="M19.9805 13.3333H30.0638" stroke="white" stroke-width="2.75" stroke-linecap="round" stroke-linejoin="round"/>
</svg>
