<svg width="44" height="45" viewBox="0 0 44 45" fill="none" xmlns="http://www.w3.org/2000/svg">
<path d="M16.5553 40.265L20.8269 36.6717C21.4686 36.1217 22.5319 36.1217 23.1736 36.6717L27.4453 40.265C28.4353 40.76 29.6453 40.265 30.0119 39.2017L30.8186 36.7634C31.0203 36.1767 30.8186 35.315 30.3786 34.875L26.2169 30.695C25.9053 30.4017 25.6669 29.815 25.6669 29.3934V24.1684C25.6669 23.3984 26.2353 23.0317 26.9503 23.325L35.9519 27.2117C37.3636 27.8167 38.5186 27.065 38.5186 25.525V23.16C38.5186 21.9317 37.6019 20.52 36.4653 20.0434L26.2169 15.625C25.9236 15.4967 25.6669 15.1117 25.6669 14.7817V9.28169C25.6669 7.55836 24.4019 5.52336 22.8619 4.73503C22.3119 4.46003 21.6703 4.46003 21.1203 4.73503C19.5803 5.52336 18.3153 7.5767 18.3153 9.30003V14.8C18.3153 15.13 18.0586 15.515 17.7653 15.6434L7.53527 20.0617C6.3986 20.52 5.48193 21.9317 5.48193 23.16V25.525C5.48193 27.065 6.63693 27.8167 8.0486 27.2117L17.0503 23.325C17.7469 23.0134 18.3336 23.3984 18.3336 24.1684V29.3934C18.3336 29.815 18.0953 30.4017 17.8019 30.695L13.6403 34.875C13.2003 35.315 12.9986 36.1584 13.2003 36.7634L14.0069 39.2017C14.3369 40.265 15.5469 40.7784 16.5553 40.265Z" stroke="white" stroke-width="2.75" stroke-linecap="round" stroke-linejoin="round"/>
</svg>
