<svg width="44" height="45" viewBox="0 0 44 45" fill="none" xmlns="http://www.w3.org/2000/svg">
<path d="M28.4352 5.68826H15.5652C11.0002 5.68826 9.99183 7.9616 9.40516 10.7483L7.3335 20.6666H36.6668L34.5952 10.7483C34.0085 7.9616 33.0002 5.68826 28.4352 5.68826Z" stroke="white" stroke-width="2.75" stroke-linecap="round" stroke-linejoin="round"/>
<path d="M40.3155 36.8367C40.5172 38.9817 38.7938 40.8333 36.5938 40.8333H33.1472C31.1672 40.8333 30.8922 39.99 30.5438 38.945L30.1772 37.845C29.6638 36.3417 29.3338 35.3333 26.6938 35.3333H17.3072C14.6672 35.3333 14.2822 36.47 13.8238 37.845L13.4572 38.945C13.1088 39.99 12.8338 40.8333 10.8538 40.8333H7.40716C5.20716 40.8333 3.48383 38.9817 3.68549 36.8367L4.71216 25.6717C4.96883 22.9217 5.50049 20.6667 10.3038 20.6667H33.6972C38.5005 20.6667 39.0322 22.9217 39.2888 25.6717L40.3155 36.8367Z" stroke="white" stroke-width="2.75" stroke-linecap="round" stroke-linejoin="round"/>
<path d="M7.33333 15.1667H5.5" stroke="white" stroke-width="2.75" stroke-linecap="round" stroke-linejoin="round"/>
<path d="M38.4998 15.1667H36.6665" stroke="white" stroke-width="2.75" stroke-linecap="round" stroke-linejoin="round"/>
<path d="M22 6V9.66667" stroke="white" stroke-width="2.75" stroke-linecap="round" stroke-linejoin="round"/>
<path d="M19.25 9.66666H24.75" stroke="white" stroke-width="2.75" stroke-linecap="round" stroke-linejoin="round"/>
<path d="M11 28H16.5" stroke="white" stroke-width="2.75" stroke-linecap="round" stroke-linejoin="round"/>
<path d="M27.5 28H33" stroke="white" stroke-width="2.75" stroke-linecap="round" stroke-linejoin="round"/>
</svg>
