<svg width="310" height="317" viewBox="0 0 310 317" fill="none" xmlns="http://www.w3.org/2000/svg">
<path opacity="0.5" d="M248.707 107.278C266.263 62.3439 279.904 4.22738 270.146 0.509471C260.387 -3.20844 230.924 48.6006 213.463 93.6979C211.939 97.8399 210.322 101.819 208.867 105.703C202.593 108.021 189.555 112.938 172.972 119.25C173.136 119.156 173.462 118.967 173.625 118.873L178.384 106.774C179.055 105.299 178.019 103.504 176.218 103.022L164.47 98.4951C162.737 97.7552 160.918 98.3708 160.341 100.009L155.582 112.108C155.582 112.108 155.495 113.464 155.708 114.21L150.141 128.299C136.03 133.619 120.684 139.434 105.5 145.156L110.19 133.313C110.861 131.839 109.825 130.044 108.024 129.562L96.2757 125.035C94.5436 124.295 92.7241 124.911 92.1473 126.548L87.3885 138.648C87.3885 138.648 87.3011 140.003 87.5147 140.75L82.085 154.325C43.5552 168.958 11.3939 181.436 10.6036 182.327C8.62769 184.556 2.28318 202.573 2.28318 202.573C0.596584 206.809 -0.205431 210.317 0.14604 210.549C0.660628 210.687 2.83655 206.168 4.45421 202.19L82.8677 188.454C81.8084 191.893 81.6335 194.604 82.4996 194.973C83.6229 195.412 85.7115 192.249 87.2349 188.107L87.3729 187.593L102.827 184.977C101.837 188.159 101.662 190.87 102.528 191.24C103.651 191.679 105.74 188.515 107.263 184.373L121.199 181.765L131.133 182.772C129.841 186.562 129.365 189.882 130.231 190.252C131.355 190.691 133.443 187.528 134.967 183.386L135.13 183.292L154.646 185.074C153.354 188.864 152.878 192.184 153.908 192.459C155.031 192.898 157.119 189.735 158.643 185.593L176.64 187.382C165.21 217.687 160.872 229.762 152.258 252.135C143.48 274.602 136.547 296.874 131.703 315.982C110.759 324.159 69.08 339.741 69.08 339.741L63.06 351.916L122.787 360.06C122.293 364.478 121.911 367.961 122.063 370.483C119.092 380.029 117.6 386.109 118.466 386.479C119.332 386.849 122.393 381.602 126.418 372.753C128.162 370.877 130.251 367.714 132.967 363.753L182.907 398.645L186.938 385.66C186.938 385.66 165.489 343.236 155.964 323.724C164.907 306.817 174.865 287.148 184.816 265.96C195.72 238.134 200.899 226.009 211.182 200.498L225.504 211.368C223.912 215.767 223.367 219.344 224.491 219.783C225.357 220.153 227.307 217.504 229.019 213.689L244.842 225.65L244.679 225.744C243.086 230.143 242.636 233.883 243.665 234.159C244.531 234.529 246.645 231.786 248.194 228.065L256.14 233.917L264.834 245.209C263.147 249.445 262.697 253.185 263.82 253.624C264.686 253.994 266.336 251.954 267.747 248.747L277.358 261.25L277.031 261.438C275.439 265.837 274.988 269.577 276.112 270.016C276.978 270.386 278.696 268.089 280.107 264.882L328.376 328.143C327.015 332.191 325.448 337.01 325.799 337.242C326.314 337.38 327.982 334.242 329.669 330.006C329.669 330.006 337.3 312.334 337.217 309.554C337.236 308.456 321.959 277.475 303.712 240.597L309.142 227.022C309.142 227.022 310.447 226.269 310.748 225.66L315.507 213.56C316.177 212.086 315.142 210.291 313.34 209.809L301.592 205.282C299.86 204.542 298.041 205.158 297.464 206.796L292.774 218.638C285.49 204.139 278.207 189.64 271.394 175.956L276.962 161.867C276.962 161.867 278.267 161.114 278.568 160.505L283.327 148.406C283.998 146.931 282.962 145.136 281.161 144.654L269.412 140.127C267.68 139.387 265.861 140.003 265.284 141.641L260.525 153.74C260.525 153.74 260.714 154.066 260.576 154.581C252.796 138.846 246.574 126.562 243.509 120.501C244.964 116.616 246.582 112.638 248.268 108.402L248.707 107.278Z" fill="white"/>
</svg>
